<svg width="25" height="25" viewBox="0 0 25 25" fill="none" xmlns="http://www.w3.org/2000/svg">
<path fill-rule="evenodd" clip-rule="evenodd" d="M12.9987 3.5C10.1522 3.5 7.76089 5.64032 7.44654 8.46942L7.19474 10.7356L7.18829 10.7933C7.05934 11.9169 6.69358 13.0005 6.11514 13.9725L6.08535 14.0222L5.50732 14.9856C4.98277 15.8599 4.72049 16.297 4.77711 16.6559C4.81479 16.8946 4.93767 17.1117 5.12304 17.2668C5.40161 17.5 5.91138 17.5 6.93093 17.5H19.0665C20.086 17.5 20.5958 17.5 20.8744 17.2668C21.0597 17.1117 21.1826 16.8946 21.2203 16.6559C21.2769 16.297 21.0146 15.8599 20.4901 14.9856L19.912 14.0222L19.8823 13.9725C19.3038 13.0005 18.9381 11.9169 18.8091 10.7933L18.8027 10.7356L18.5509 8.46942C18.2365 5.64032 15.8452 3.5 12.9987 3.5Z" fill="#101010"/>
<path d="M9.99805 17.5C9.99805 17.894 10.0756 18.2841 10.2264 18.6481C10.3772 19.012 10.5982 19.3427 10.8767 19.6213C11.1553 19.8999 11.486 20.1209 11.85 20.2716C12.214 20.4224 12.6041 20.5 12.998 20.5C13.392 20.5 13.7821 20.4224 14.1461 20.2716C14.5101 20.1209 14.8408 19.8999 15.1194 19.6213C15.3979 19.3427 15.6189 19.012 15.7697 18.6481C15.9204 18.2841 15.998 17.894 15.998 17.5L12.998 17.5H9.99805Z" fill="#101010"/>
<path d="M18.998 9C20.3788 9 21.498 7.88071 21.498 6.5C21.498 5.11929 20.3788 4 18.998 4C17.6173 4 16.498 5.11929 16.498 6.5C16.498 7.88071 17.6173 9 18.998 9Z" fill="#D00000" stroke="#D00000"/>
</svg>