<svg width="20" height="21" viewBox="0 0 20 21" fill="none" xmlns="http://www.w3.org/2000/svg">
<path d="M15.2493 9.45832C15.2493 12.9331 12.4325 15.75 8.95768 15.75V17.75C13.537 17.75 17.2493 14.0377 17.2493 9.45832H15.2493ZM8.95768 15.75C5.48289 15.75 2.66602 12.9331 2.66602 9.45832H0.666016C0.666016 14.0377 4.37832 17.75 8.95768 17.75V15.75ZM2.66602 9.45832C2.66602 5.98353 5.48289 3.16666 8.95768 3.16666V1.16666C4.37832 1.16666 0.666016 4.87896 0.666016 9.45832H2.66602ZM8.95768 3.16666C12.4325 3.16666 15.2493 5.98353 15.2493 9.45832H17.2493C17.2493 4.87896 13.537 1.16666 8.95768 1.16666V3.16666Z" fill="#8E8686"/>
<path d="M18.3333 18.8333L15 15.5" stroke="#8E8686" stroke-width="2" stroke-linecap="round"/>
</svg>