<svg width="264" height="294" viewBox="0 0 264 294" fill="none" xmlns="http://www.w3.org/2000/svg">
<g filter="url(#filter0_d_450_73)">
<path d="M30.8683 0H231V169.579H30.8683V0Z" fill="#03071E" fill-opacity="0.8" shape-rendering="crispEdges"/>
<path d="M131.838 278.839L15.1611 164.885H248.515L131.838 278.839Z" fill="#03071E" fill-opacity="0.8" shape-rendering="crispEdges"/>
</g>
<path d="M73.6492 123.65L72.5368 119.417H65.1981L64.0548 123.65H57.3496L64.7192 100.97H72.8612L80.3235 123.65H73.6492ZM71.2699 114.411L70.2966 110.703C70.1936 110.302 70.0442 109.73 69.8485 108.988C69.6528 108.236 69.4571 107.464 69.2614 106.671C69.076 105.867 68.9318 105.208 68.8288 104.693C68.7361 105.208 68.6022 105.847 68.4271 106.609C68.2623 107.361 68.0872 108.108 67.9018 108.849C67.7267 109.591 67.5722 110.209 67.4383 110.703L66.465 114.411H71.2699ZM88.4656 99.6103V105.049C88.4656 105.667 88.445 106.259 88.4038 106.825C88.3626 107.382 88.3111 107.907 88.2493 108.401H88.4656C88.9188 107.691 89.511 107.088 90.2423 106.594C90.9736 106.089 91.9315 105.837 93.116 105.837C94.939 105.837 96.4274 106.609 97.581 108.154C98.7449 109.699 99.3268 111.934 99.3268 114.859C99.3268 116.847 99.059 118.521 98.5234 119.88C97.9878 121.23 97.2359 122.249 96.2677 122.94C95.3098 123.619 94.1975 123.959 92.9306 123.959C91.6946 123.959 90.7521 123.748 90.1033 123.326C89.4647 122.893 88.9188 122.43 88.4656 121.935H88.0948L87.1369 123.65H82.4247V99.6103H88.4656ZM90.9066 110.58C90.3504 110.58 89.8921 110.708 89.5316 110.966C89.1711 111.223 88.9033 111.625 88.7282 112.171C88.5531 112.707 88.4656 113.392 88.4656 114.226V115.076C88.4656 116.435 88.6458 117.445 89.0063 118.104C89.3771 118.763 90.0312 119.093 90.9684 119.093C91.6791 119.093 92.225 118.727 92.6061 117.996C92.9872 117.264 93.1778 116.198 93.1778 114.797C93.1778 113.397 92.9924 112.346 92.6216 111.646C92.2508 110.935 91.6791 110.58 90.9066 110.58ZM119.504 114.859C119.504 116.322 119.303 117.62 118.902 118.753C118.5 119.886 117.918 120.838 117.156 121.611C116.394 122.383 115.472 122.97 114.39 123.372C113.309 123.764 112.088 123.959 110.729 123.959C109.462 123.959 108.298 123.764 107.237 123.372C106.187 122.97 105.27 122.383 104.487 121.611C103.704 120.838 103.097 119.886 102.664 118.753C102.242 117.62 102.031 116.322 102.031 114.859C102.031 112.923 102.381 111.285 103.081 109.946C103.792 108.607 104.801 107.588 106.109 106.887C107.428 106.187 108.998 105.837 110.821 105.837C112.5 105.837 113.994 106.187 115.302 106.887C116.61 107.588 117.635 108.607 118.376 109.946C119.128 111.285 119.504 112.923 119.504 114.859ZM108.164 114.859C108.164 115.858 108.252 116.703 108.427 117.393C108.602 118.073 108.88 118.593 109.261 118.953C109.652 119.304 110.162 119.479 110.791 119.479C111.419 119.479 111.918 119.304 112.289 118.953C112.66 118.593 112.928 118.073 113.093 117.393C113.268 116.703 113.355 115.858 113.355 114.859C113.355 113.86 113.268 113.026 113.093 112.356C112.928 111.687 112.655 111.182 112.274 110.842C111.903 110.502 111.398 110.332 110.76 110.332C109.843 110.332 109.179 110.714 108.767 111.476C108.365 112.238 108.164 113.366 108.164 114.859ZM139.991 106.146V123.65H135.433L134.676 121.472H134.321C133.96 122.059 133.502 122.538 132.946 122.909C132.4 123.269 131.792 123.532 131.123 123.697C130.453 123.872 129.758 123.959 129.037 123.959C127.894 123.959 126.858 123.738 125.931 123.295C125.015 122.852 124.283 122.157 123.738 121.209C123.202 120.262 122.934 119.041 122.934 117.548V106.146H128.975V115.709C128.975 116.842 129.135 117.707 129.454 118.305C129.784 118.892 130.319 119.185 131.061 119.185C131.823 119.185 132.41 118.979 132.822 118.567C133.244 118.155 133.538 117.548 133.703 116.744C133.867 115.941 133.95 114.962 133.95 113.809V106.146H139.991ZM152.737 119.185C153.283 119.185 153.782 119.129 154.236 119.015C154.689 118.902 155.162 118.758 155.657 118.583V122.986C154.998 123.274 154.297 123.506 153.556 123.681C152.824 123.867 151.887 123.959 150.744 123.959C149.611 123.959 148.612 123.784 147.747 123.434C146.881 123.073 146.207 122.455 145.723 121.58C145.249 120.694 145.012 119.463 145.012 117.887V110.672H142.895V108.216L145.584 106.316L147.144 102.638H151.099V106.146H155.394V110.672H151.099V117.486C151.099 118.052 151.243 118.48 151.532 118.768C151.82 119.046 152.222 119.185 152.737 119.185ZM186.495 101.063V114.658C186.495 116.554 186.134 118.202 185.413 119.602C184.692 120.993 183.611 122.069 182.169 122.831C180.727 123.583 178.919 123.959 176.746 123.959C173.635 123.959 171.261 123.161 169.624 121.564C167.986 119.968 167.167 117.712 167.167 114.797V101.063H173.301V114.319C173.301 115.915 173.599 117.074 174.197 117.795C174.794 118.516 175.675 118.876 176.839 118.876C177.673 118.876 178.353 118.722 178.878 118.413C179.403 118.093 179.784 117.594 180.021 116.914C180.268 116.234 180.392 115.359 180.392 114.288V101.063H186.495ZM203.891 118.274C203.891 119.386 203.644 120.37 203.15 121.225C202.655 122.079 201.862 122.749 200.77 123.233C199.689 123.717 198.262 123.959 196.491 123.959C195.244 123.959 194.127 123.892 193.138 123.758C192.16 123.624 191.166 123.367 190.156 122.986V118.15C191.258 118.655 192.381 119.02 193.524 119.247C194.668 119.463 195.569 119.571 196.228 119.571C196.908 119.571 197.402 119.499 197.711 119.355C198.031 119.201 198.19 118.974 198.19 118.675C198.19 118.418 198.082 118.202 197.866 118.026C197.66 117.841 197.284 117.63 196.738 117.393C196.202 117.156 195.445 116.837 194.467 116.435C193.499 116.033 192.69 115.596 192.041 115.122C191.403 114.648 190.924 114.082 190.604 113.422C190.285 112.763 190.125 111.955 190.125 110.997C190.125 109.287 190.785 108 192.103 107.134C193.421 106.269 195.167 105.837 197.341 105.837C198.494 105.837 199.581 105.965 200.6 106.223C201.62 106.47 202.676 106.836 203.768 107.32L202.115 111.213C201.249 110.822 200.374 110.508 199.488 110.271C198.602 110.034 197.897 109.915 197.371 109.915C196.898 109.915 196.532 109.977 196.274 110.101C196.017 110.224 195.888 110.405 195.888 110.641C195.888 110.858 195.976 111.048 196.151 111.213C196.336 111.378 196.681 111.568 197.186 111.785C197.691 112.001 198.427 112.305 199.395 112.696C200.415 113.108 201.254 113.551 201.914 114.025C202.583 114.488 203.078 115.055 203.397 115.724C203.726 116.394 203.891 117.244 203.891 118.274Z" fill="white"/>
<defs>
<filter id="filter0_d_450_73" x="15.1611" y="0" width="240.606" height="284.112" filterUnits="userSpaceOnUse" color-interpolation-filters="sRGB">
<feFlood flood-opacity="0" result="BackgroundImageFix"/>
<feColorMatrix in="SourceAlpha" type="matrix" values="0 0 0 0 0 0 0 0 0 0 0 0 0 0 0 0 0 0 127 0" result="hardAlpha"/>
<feOffset dx="4.61435" dy="2.63677"/>
<feGaussianBlur stdDeviation="1.31839"/>
<feComposite in2="hardAlpha" operator="out"/>
<feColorMatrix type="matrix" values="0 0 0 0 0 0 0 0 0 0 0 0 0 0 0 0 0 0 0.25 0"/>
<feBlend mode="normal" in2="BackgroundImageFix" result="effect1_dropShadow_450_73"/>
<feBlend mode="normal" in="SourceGraphic" in2="effect1_dropShadow_450_73" result="shape"/>
</filter>
</defs>
</svg>
