<svg width="80" height="80" viewBox="0 0 80 80" fill="none" xmlns="http://www.w3.org/2000/svg">
<path fill-rule="evenodd" clip-rule="evenodd" d="M40 0C17.9176 0 0 17.9176 0 40C0 62.0822 17.9176 80 40 80C62.0389 80 80 62.0822 80 40C80 17.9176 62.0389 0 40 0ZM66.4206 18.4382C71.1928 24.2516 74.0567 31.6703 74.1433 39.6963C73.015 39.4794 61.7356 37.1801 50.3688 38.6117C50.1085 38.0478 49.8915 37.4403 49.6313 36.8329C48.9371 35.1844 48.1562 33.4924 47.3753 31.8872C59.9567 26.7679 65.6833 19.3927 66.4206 18.4382ZM40 5.90022C48.6768 5.90022 56.6161 9.154 62.6467 14.4902C62.0389 15.3579 56.8761 22.256 44.7289 26.8113C39.1323 16.5293 32.9284 8.11278 31.974 6.81128C34.5336 6.20389 37.2234 5.90022 40 5.90022ZM25.4664 9.11067C26.3774 10.3253 32.4512 18.7853 38.1345 28.8503C22.1692 33.1019 8.06944 33.0152 6.551 33.0152C8.7635 22.4295 15.9219 13.6226 25.4664 9.11067ZM5.81344 40.0433C5.81344 39.6963 5.81344 39.3493 5.81344 39.0022C7.2885 39.0455 23.8612 39.2625 40.9111 34.1432C41.9089 36.0521 42.8199 38.0043 43.6876 39.9567C43.2538 40.0868 42.7766 40.2169 42.3427 40.3471C24.7289 46.0304 15.3579 61.5617 14.5771 62.8633C9.154 56.8328 5.81344 48.8069 5.81344 40.0433ZM40 74.1867C32.1042 74.1867 24.8156 71.4967 19.0455 66.985C19.6529 65.7267 26.5944 52.3644 45.8568 45.6399C45.9436 45.5966 45.9869 45.5966 46.0738 45.5531C50.8894 58.0044 52.8417 68.46 53.3622 71.4533C49.2408 73.2322 44.7289 74.1867 40 74.1867ZM59.0456 68.33C58.6983 66.2472 56.8767 56.2689 52.4078 43.9913C63.1239 42.2994 72.4944 45.0759 73.6661 45.4664C72.1911 54.9674 66.7244 63.1672 59.0456 68.33Z" fill="#C32361"/>
</svg>
