<svg width="28" height="28" viewBox="0 0 28 28" fill="none" xmlns="http://www.w3.org/2000/svg">
<path d="M12.6004 8.39995C12.6004 9.51386 12.1579 10.5821 11.3702 11.3698C10.5826 12.1575 9.5143 12.6 8.40039 12.6C7.28648 12.6 6.2182 12.1575 5.43054 11.3698C4.64289 10.5821 4.20039 9.51386 4.20039 8.39995C4.20039 7.28604 4.64289 6.21776 5.43054 5.4301C6.2182 4.64245 7.28648 4.19995 8.40039 4.19995C9.5143 4.19995 10.5826 4.64245 11.3702 5.4301C12.1579 6.21776 12.6004 7.28604 12.6004 8.39995ZM23.8004 8.39995C23.8004 8.9515 23.6918 9.49765 23.4807 10.0072C23.2696 10.5168 22.9602 10.9798 22.5702 11.3698C22.1802 11.7598 21.7172 12.0692 21.2077 12.2802C20.6981 12.4913 20.1519 12.6 19.6004 12.6C19.0488 12.6 18.5027 12.4913 17.9931 12.2802C17.4836 12.0692 17.0205 11.7598 16.6305 11.3698C16.2405 10.9798 15.9312 10.5168 15.7201 10.0072C15.509 9.49765 15.4004 8.9515 15.4004 8.39995C15.4004 7.28604 15.8429 6.21776 16.6305 5.4301C17.4182 4.64245 18.4865 4.19995 19.6004 4.19995C20.7143 4.19995 21.7826 4.64245 22.5702 5.4301C23.3579 6.21776 23.8004 7.28604 23.8004 8.39995ZM18.1024 23.7999C18.1668 23.3421 18.2004 22.8759 18.2004 22.4C18.2036 20.2004 17.4636 18.0642 16.1004 16.3379C17.1645 15.7236 18.3716 15.4001 19.6003 15.4001C20.8291 15.4001 22.0362 15.7235 23.1003 16.3379C24.1644 16.9523 25.0481 17.8359 25.6625 18.9C26.2769 19.9641 26.6004 21.1712 26.6004 22.4V23.7999H18.1024ZM8.40039 15.4C10.2569 15.4 12.0374 16.1374 13.3501 17.4502C14.6629 18.763 15.4004 20.5434 15.4004 22.4V23.7999H1.40039V22.4C1.40039 20.5434 2.13789 18.763 3.45064 17.4502C4.7634 16.1374 6.54388 15.4 8.40039 15.4Z" fill="#8E8686"/>
</svg>
