<svg width="28" height="28" viewBox="0 0 28 28" fill="none" xmlns="http://www.w3.org/2000/svg">
<path d="M23.3337 14C23.3337 12.7132 22.2872 11.6667 21.0003 11.6667H19.8337V8.16671C19.8337 4.95021 17.2168 2.33337 14.0003 2.33337C10.7838 2.33337 8.16699 4.95021 8.16699 8.16671V11.6667H7.00033C5.71349 11.6667 4.66699 12.7132 4.66699 14V23.3334C4.66699 24.6202 5.71349 25.6667 7.00033 25.6667H21.0003C22.2872 25.6667 23.3337 24.6202 23.3337 23.3334V14ZM10.5003 8.16671C10.5003 6.23704 12.0707 4.66671 14.0003 4.66671C15.93 4.66671 17.5003 6.23704 17.5003 8.16671V11.6667H10.5003V8.16671Z" fill="#8E8686"/>
</svg>
