<svg width="158" height="28" viewBox="0 0 158 28" fill="none" xmlns="http://www.w3.org/2000/svg">
<path d="M21.9053 1.23745V20H17.3349V8.74782L13.1387 20H9.45036L5.22745 8.72109V20H0.657091V1.23745H6.056L11.3213 14.2269L16.5331 1.23745H21.9053ZM40.4264 5.08618L31.0719 27.0827H26.1541L29.5752 19.4922L23.5081 5.08618H28.613L32.0608 14.414L35.4819 5.08618H40.4264Z" fill="black"/>
<path d="M49.1084 1.23745C51.0862 1.23745 52.8146 1.62945 54.2935 2.41345C55.7724 3.19745 56.9128 4.30218 57.7146 5.72764C58.5342 7.13527 58.9441 8.76564 58.9441 10.6187C58.9441 12.454 58.5342 14.0844 57.7146 15.5098C56.9128 16.9353 55.7635 18.04 54.2668 18.824C52.7879 19.608 51.0684 20 49.1084 20H42.0791V1.23745H49.1084ZM48.8144 16.0444C50.5428 16.0444 51.8881 15.5722 52.8502 14.6278C53.8124 13.6835 54.2935 12.3471 54.2935 10.6187C54.2935 8.89036 53.8124 7.54509 52.8502 6.58291C51.8881 5.62073 50.5428 5.13964 48.8144 5.13964H46.6495V16.0444H48.8144ZM76.0913 12.3025C76.0913 12.7302 76.0645 13.1756 76.0111 13.6389H65.6676C65.7389 14.5655 66.0329 15.2782 66.5496 15.7771C67.0842 16.2582 67.7345 16.4987 68.5007 16.4987C69.6411 16.4987 70.434 16.0176 70.8794 15.0555H75.7438C75.4944 16.0355 75.04 16.9175 74.3807 17.7015C73.7393 18.4855 72.9285 19.1002 71.9485 19.5456C70.9685 19.9911 69.8727 20.2138 68.6611 20.2138C67.2 20.2138 65.8993 19.902 64.7589 19.2784C63.6185 18.6547 62.7276 17.7638 62.0862 16.6056C61.4447 15.4475 61.124 14.0933 61.124 12.5431C61.124 10.9929 61.4358 9.63873 62.0594 8.48055C62.7009 7.32236 63.5918 6.43145 64.7322 5.80782C65.8725 5.18418 67.1822 4.87236 68.6611 4.87236C70.1044 4.87236 71.3873 5.17527 72.5098 5.78109C73.6324 6.38691 74.5054 7.25109 75.1291 8.37364C75.7705 9.49618 76.0913 10.8058 76.0913 12.3025ZM71.414 11.0998C71.414 10.3158 71.1467 9.69218 70.6122 9.22891C70.0776 8.76564 69.4094 8.534 68.6076 8.534C67.8414 8.534 67.1911 8.75673 66.6565 9.20218C66.1398 9.64764 65.8191 10.2802 65.6944 11.0998H71.414ZM83.6073 7.19764C84.0349 6.50273 84.6496 5.94145 85.4515 5.51382C86.2533 5.08618 87.1709 4.87236 88.2044 4.87236C89.4338 4.87236 90.5475 5.18418 91.5453 5.80782C92.5431 6.43145 93.3271 7.32236 93.8973 8.48055C94.4853 9.63873 94.7793 10.984 94.7793 12.5164C94.7793 14.0487 94.4853 15.4029 93.8973 16.5789C93.3271 17.7371 92.5431 18.6369 91.5453 19.2784C90.5475 19.902 89.4338 20.2138 88.2044 20.2138C87.1531 20.2138 86.2355 20.0089 85.4515 19.5991C84.6675 19.1715 84.0527 18.6102 83.6073 17.9153V20H79.0369V0.221818H83.6073V7.19764ZM90.1287 12.5164C90.1287 11.376 89.808 10.4851 89.1665 9.84364C88.5429 9.18436 87.7678 8.85473 86.8413 8.85473C85.9325 8.85473 85.1575 9.18436 84.516 9.84364C83.8924 10.5029 83.5805 11.4027 83.5805 12.5431C83.5805 13.6835 83.8924 14.5833 84.516 15.2425C85.1575 15.9018 85.9325 16.2315 86.8413 16.2315C87.75 16.2315 88.5251 15.9018 89.1665 15.2425C89.808 14.5655 90.1287 13.6567 90.1287 12.5164ZM106.024 16.1245V20H103.698C102.041 20 100.75 19.5991 99.823 18.7973C98.8965 17.9776 98.4332 16.6502 98.4332 14.8149V8.88145H96.6157V5.08618H98.4332V1.45127H103.004V5.08618H105.997V8.88145H103.004V14.8684C103.004 15.3138 103.11 15.6345 103.324 15.8305C103.538 16.0265 103.894 16.1245 104.393 16.1245H106.024ZM115.893 20.2138C114.432 20.2138 113.113 19.902 111.937 19.2784C110.779 18.6547 109.861 17.7638 109.184 16.6056C108.525 15.4475 108.195 14.0933 108.195 12.5431C108.195 11.0107 108.534 9.66545 109.211 8.50727C109.888 7.33127 110.815 6.43145 111.991 5.80782C113.167 5.18418 114.485 4.87236 115.946 4.87236C117.407 4.87236 118.726 5.18418 119.902 5.80782C121.078 6.43145 122.004 7.33127 122.681 8.50727C123.359 9.66545 123.697 11.0107 123.697 12.5431C123.697 14.0755 123.35 15.4296 122.655 16.6056C121.978 17.7638 121.042 18.6547 119.848 19.2784C118.672 19.902 117.354 20.2138 115.893 20.2138ZM115.893 16.2582C116.766 16.2582 117.505 15.9375 118.111 15.296C118.735 14.6545 119.047 13.7369 119.047 12.5431C119.047 11.3493 118.744 10.4316 118.138 9.79018C117.55 9.14873 116.819 8.828 115.946 8.828C115.055 8.828 114.316 9.14873 113.728 9.79018C113.14 10.4138 112.846 11.3315 112.846 12.5431C112.846 13.7369 113.131 14.6545 113.701 15.296C114.289 15.9375 115.02 16.2582 115.893 16.2582ZM151.319 20.2138C150.018 20.2138 148.86 19.9911 147.844 19.5456C146.829 19.1002 146.027 18.4944 145.439 17.7282C144.851 16.9442 144.521 16.0711 144.45 15.1089H148.967C149.02 15.6256 149.261 16.0444 149.688 16.3651C150.116 16.6858 150.642 16.8462 151.265 16.8462C151.835 16.8462 152.272 16.7393 152.575 16.5255C152.896 16.2938 153.056 15.9998 153.056 15.6435C153.056 15.2158 152.833 14.904 152.388 14.708C151.942 14.4942 151.221 14.2625 150.223 14.0131C149.154 13.7636 148.263 13.5053 147.55 13.238C146.837 12.9529 146.223 12.5164 145.706 11.9284C145.189 11.3225 144.931 10.5118 144.931 9.49618C144.931 8.64091 145.163 7.86582 145.626 7.17091C146.107 6.45818 146.802 5.89691 147.711 5.48709C148.637 5.07727 149.733 4.87236 150.998 4.87236C152.869 4.87236 154.339 5.33564 155.408 6.26218C156.495 7.18873 157.119 8.41818 157.279 9.95055H153.056C152.985 9.43382 152.753 9.024 152.361 8.72109C151.987 8.41818 151.488 8.26673 150.864 8.26673C150.33 8.26673 149.92 8.37364 149.635 8.58745C149.35 8.78345 149.207 9.05964 149.207 9.416C149.207 9.84364 149.43 10.1644 149.875 10.3782C150.339 10.592 151.051 10.8058 152.014 11.0196C153.118 11.3047 154.018 11.5898 154.713 11.8749C155.408 12.1422 156.014 12.5876 156.531 13.2113C157.065 13.8171 157.341 14.6367 157.359 15.6702C157.359 16.5433 157.11 17.3273 156.611 18.0222C156.13 18.6993 155.426 19.2338 154.499 19.6258C153.591 20.0178 152.53 20.2138 151.319 20.2138Z" fill="#D00000"/>
</svg>
