<svg width="28" height="28" viewBox="0 0 28 28" fill="none" xmlns="http://www.w3.org/2000/svg">
<path d="M24.0625 3.0625H3.9375C3.45352 3.0625 3.0625 3.45352 3.0625 3.9375V24.0625C3.0625 24.5465 3.45352 24.9375 3.9375 24.9375H24.0625C24.5465 24.9375 24.9375 24.5465 24.9375 24.0625V3.9375C24.9375 3.45352 24.5465 3.0625 24.0625 3.0625ZM19.25 14.6562C19.25 14.7766 19.1516 14.875 19.0312 14.875H14.875V19.0312C14.875 19.1516 14.7766 19.25 14.6562 19.25H13.3438C13.2234 19.25 13.125 19.1516 13.125 19.0312V14.875H8.96875C8.84844 14.875 8.75 14.7766 8.75 14.6562V13.3438C8.75 13.2234 8.84844 13.125 8.96875 13.125H13.125V8.96875C13.125 8.84844 13.2234 8.75 13.3438 8.75H14.6562C14.7766 8.75 14.875 8.84844 14.875 8.96875V13.125H19.0312C19.1516 13.125 19.25 13.2234 19.25 13.3438V14.6562Z" fill="black"/>
</svg>
