<svg width="12" height="12" viewBox="0 0 12 12" fill="none" xmlns="http://www.w3.org/2000/svg">
<path d="M10.8546 4.46625H10.2188C10.1371 4.46625 10.0788 4.40208 10.0438 4.31458C10.023 4.28245 10.0119 4.24497 10.0119 4.20667C10.0119 4.16837 10.023 4.13088 10.0438 4.09875L10.5163 3.66708C10.6089 3.57801 10.6825 3.47109 10.7326 3.35278C10.7828 3.23448 10.8084 3.10724 10.808 2.97875C10.8078 2.84948 10.782 2.72153 10.7319 2.60235C10.6818 2.48317 10.6085 2.37515 10.5163 2.28458L9.73463 1.48542C9.64409 1.39423 9.53639 1.32186 9.41776 1.27248C9.29912 1.2231 9.17189 1.19767 9.04338 1.19767C8.91488 1.19767 8.78765 1.2231 8.66901 1.27248C8.55037 1.32186 8.44268 1.39423 8.35213 1.48542L7.90297 1.91708C7.86728 1.93995 7.82577 1.95211 7.78338 1.95211C7.74099 1.95211 7.69949 1.93995 7.6638 1.91708C7.62858 1.90395 7.59781 1.88107 7.57509 1.85112C7.55237 1.82117 7.53863 1.78538 7.53547 1.74792V1.14708C7.53558 0.892147 7.43634 0.6472 7.25882 0.464231C7.0813 0.281261 6.83946 0.174671 6.58463 0.167084H5.45297C5.19252 0.167079 4.94265 0.270142 4.75793 0.453762C4.57322 0.637382 4.46868 0.886637 4.46713 1.14708V1.78292C4.46713 1.86458 4.40297 1.92292 4.31547 1.95792C4.28333 1.97876 4.24585 1.98985 4.20755 1.98985C4.16925 1.98985 4.13177 1.97876 4.09963 1.95792L3.66797 1.48542C3.48322 1.30177 3.23428 1.19717 2.9738 1.19375C2.84541 1.194 2.71837 1.21993 2.60016 1.27002C2.48195 1.32012 2.37495 1.39335 2.28547 1.48542L1.4863 2.26708C1.39245 2.35792 1.31783 2.46669 1.26686 2.58695C1.21589 2.7072 1.18963 2.83648 1.18963 2.96708C1.18963 3.09769 1.21589 3.22697 1.26686 3.34722C1.31783 3.46747 1.39245 3.57625 1.4863 3.66708L1.91797 4.09875C1.94084 4.13444 1.95299 4.17594 1.95299 4.21833C1.95299 4.26072 1.94084 4.30222 1.91797 4.33792C1.90483 4.37314 1.88196 4.40391 1.85201 4.42663C1.82205 4.44935 1.78626 4.46309 1.7488 4.46625H1.14797C0.888057 4.46625 0.63879 4.5695 0.455004 4.75328C0.271218 4.93707 0.167969 5.18634 0.167969 5.44625V6.54875C0.167964 6.8092 0.271027 7.05907 0.454647 7.24378C0.638267 7.4285 0.887522 7.53304 1.14797 7.53458H1.7838C1.86547 7.53458 1.9238 7.59875 1.9588 7.68625C1.97964 7.71838 1.99073 7.75587 1.99073 7.79417C1.99073 7.83247 1.97964 7.86995 1.9588 7.90208L1.4863 8.33375C1.30265 8.5185 1.19806 8.76744 1.19464 9.02792C1.19444 9.15724 1.22014 9.28529 1.27024 9.40451C1.32033 9.52373 1.3938 9.63171 1.4863 9.72208L2.26797 10.5154C2.35852 10.6066 2.46621 10.679 2.58484 10.7284C2.70348 10.7777 2.83071 10.8032 2.95922 10.8032C3.08772 10.8032 3.21496 10.7777 3.33359 10.7284C3.45223 10.679 3.55992 10.6066 3.65047 10.5154L4.09963 10.0837C4.13533 10.0609 4.17683 10.0487 4.21922 10.0487C4.26161 10.0487 4.30311 10.0609 4.3388 10.0837C4.37403 10.0969 4.40479 10.1198 4.42751 10.1497C4.45023 10.1797 4.46398 10.2155 4.46713 10.2529V10.8887C4.4762 11.1425 4.58344 11.3829 4.76626 11.5592C4.94907 11.7355 5.19317 11.8339 5.44713 11.8337H6.54963C6.81009 11.8338 7.05996 11.7307 7.24467 11.5471C7.42938 11.3635 7.53393 11.1142 7.53547 10.8537V10.2179C7.53547 10.1362 7.59963 10.0779 7.68713 10.0429C7.71927 10.0221 7.75675 10.011 7.79505 10.011C7.83335 10.011 7.87083 10.0221 7.90297 10.0429L8.3463 10.4921C8.53105 10.6757 8.77999 10.7803 9.04047 10.7837C9.16885 10.7835 9.29589 10.7576 9.41411 10.7075C9.53232 10.6574 9.63932 10.5842 9.7288 10.4921L10.5105 9.71042C10.6017 9.61987 10.674 9.51218 10.7234 9.39354C10.7728 9.2749 10.7982 9.14767 10.7982 9.01917C10.7982 8.89066 10.7728 8.76343 10.7234 8.64479C10.674 8.52616 10.6017 8.41846 10.5105 8.32792L10.0846 7.90208C10.0638 7.86995 10.0527 7.83247 10.0527 7.79417C10.0527 7.75587 10.0638 7.71838 10.0846 7.68625C10.0978 7.65102 10.1206 7.62026 10.1506 7.59754C10.1805 7.57482 10.2163 7.56108 10.2538 7.55792H10.8896C11.1424 7.54889 11.3819 7.44246 11.5581 7.2609C11.7342 7.07933 11.8333 6.8367 11.8346 6.58375V5.45208C11.8346 5.19163 11.7316 4.94176 11.548 4.75705C11.3643 4.57234 11.1151 4.46779 10.8546 4.46625ZM6.0013 8.04208C5.5975 8.04208 5.20276 7.92234 4.86701 7.698C4.53126 7.47366 4.26958 7.15479 4.11505 6.78173C3.96052 6.40866 3.92009 5.99815 3.99886 5.60211C4.07764 5.20606 4.27209 4.84227 4.55763 4.55674C4.84316 4.27121 5.20695 4.07676 5.60299 3.99798C5.99904 3.9192 6.40955 3.95963 6.78261 4.11416C7.15568 4.26869 7.47454 4.53038 7.69888 4.86613C7.92323 5.20188 8.04297 5.59661 8.04297 6.00042C8.04297 6.5419 7.82786 7.06121 7.44498 7.44409C7.06209 7.82698 6.54278 8.04208 6.0013 8.04208Z" fill="white"/>
</svg>
