<svg width="241" height="285" viewBox="0 0 241 285" fill="none" xmlns="http://www.w3.org/2000/svg">
<g filter="url(#filter0_d_483_210)">
<path d="M15.7071 0H215.839V169.579H15.7071V0Z" fill="#6A040F" fill-opacity="0.9" shape-rendering="crispEdges"/>
<path d="M116.677 278.839L0 164.885H233.354L116.677 278.839Z" fill="#6A040F" fill-opacity="0.9" shape-rendering="crispEdges"/>
</g>
<path d="M51.0938 116H38.9375V70.3125H65.9375V80.2188H51.0938V88.9375H64.7812V98.8438H51.0938V116ZM101.469 116L99.2188 107.438H84.375L82.0625 116H68.5L83.4062 70.125H99.875L114.969 116H101.469ZM96.6562 97.3125L94.6875 89.8125C94.4792 89 94.1771 87.8438 93.7812 86.3438C93.3854 84.8229 92.9896 83.2604 92.5938 81.6562C92.2188 80.0312 91.9271 78.6979 91.7188 77.6562C91.5312 78.6979 91.2604 79.9896 90.9062 81.5312C90.5729 83.0521 90.2188 84.5625 89.8438 86.0625C89.4896 87.5625 89.1771 88.8125 88.9062 89.8125L86.9375 97.3125H96.6562ZM162.688 93.0938C162.688 96.2604 162.344 99.1979 161.656 101.906C160.99 104.594 159.927 106.969 158.469 109.031C157.031 111.073 155.146 112.74 152.812 114.031L163.969 126.875H148.594L140.906 116.625C140.885 116.625 140.812 116.625 140.688 116.625C140.583 116.625 140.51 116.625 140.469 116.625C136.635 116.625 133.312 116.073 130.5 114.969C127.708 113.844 125.406 112.25 123.594 110.188C121.781 108.104 120.438 105.615 119.562 102.719C118.688 99.8229 118.25 96.5938 118.25 93.0312C118.25 88.2812 119.031 84.1562 120.594 80.6562C122.177 77.1354 124.615 74.4167 127.906 72.5C131.198 70.5625 135.406 69.5938 140.531 69.5938C145.74 69.5938 149.969 70.5625 153.219 72.5C156.49 74.4375 158.885 77.1667 160.406 80.6875C161.927 84.2083 162.688 88.3438 162.688 93.0938ZM131.25 93.0938C131.25 95.8438 131.562 98.2083 132.188 100.188C132.812 102.167 133.802 103.688 135.156 104.75C136.51 105.812 138.281 106.344 140.469 106.344C142.74 106.344 144.542 105.812 145.875 104.75C147.229 103.688 148.198 102.167 148.781 100.188C149.385 98.2083 149.688 95.8438 149.688 93.0938C149.688 88.9688 149 85.7083 147.625 83.3125C146.25 80.9167 143.885 79.7188 140.531 79.7188C138.302 79.7188 136.5 80.2604 135.125 81.3438C133.771 82.4271 132.781 83.9688 132.156 85.9688C131.552 87.9688 131.25 90.3438 131.25 93.0938ZM196.531 105.125C196.531 107.375 196.031 109.365 195.031 111.094C194.031 112.823 192.427 114.177 190.219 115.156C188.031 116.135 185.146 116.625 181.562 116.625C179.042 116.625 176.781 116.49 174.781 116.219C172.802 115.948 170.792 115.427 168.75 114.656V104.875C170.979 105.896 173.25 106.635 175.562 107.094C177.875 107.531 179.698 107.75 181.031 107.75C182.406 107.75 183.406 107.604 184.031 107.312C184.677 107 185 106.542 185 105.938C185 105.417 184.781 104.979 184.344 104.625C183.927 104.25 183.167 103.823 182.062 103.344C180.979 102.865 179.448 102.219 177.469 101.406C175.51 100.594 173.875 99.7083 172.562 98.75C171.271 97.7917 170.302 96.6458 169.656 95.3125C169.01 93.9792 168.688 92.3438 168.688 90.4062C168.688 86.9479 170.021 84.3438 172.688 82.5938C175.354 80.8438 178.885 79.9688 183.281 79.9688C185.615 79.9688 187.812 80.2292 189.875 80.75C191.938 81.25 194.073 81.9896 196.281 82.9688L192.938 90.8438C191.188 90.0521 189.417 89.4167 187.625 88.9375C185.833 88.4583 184.406 88.2188 183.344 88.2188C182.385 88.2188 181.646 88.3438 181.125 88.5938C180.604 88.8438 180.344 89.2083 180.344 89.6875C180.344 90.125 180.521 90.5104 180.875 90.8438C181.25 91.1771 181.948 91.5625 182.969 92C183.99 92.4375 185.479 93.0521 187.438 93.8438C189.5 94.6771 191.198 95.5729 192.531 96.5312C193.885 97.4688 194.885 98.6146 195.531 99.9688C196.198 101.323 196.531 103.042 196.531 105.125Z" fill="white"/>
<defs>
<filter id="filter0_d_483_210" x="0" y="0" width="240.606" height="284.112" filterUnits="userSpaceOnUse" color-interpolation-filters="sRGB">
<feFlood flood-opacity="0" result="BackgroundImageFix"/>
<feColorMatrix in="SourceAlpha" type="matrix" values="0 0 0 0 0 0 0 0 0 0 0 0 0 0 0 0 0 0 127 0" result="hardAlpha"/>
<feOffset dx="4.61435" dy="2.63677"/>
<feGaussianBlur stdDeviation="1.31839"/>
<feComposite in2="hardAlpha" operator="out"/>
<feColorMatrix type="matrix" values="0 0 0 0 0 0 0 0 0 0 0 0 0 0 0 0 0 0 0.25 0"/>
<feBlend mode="normal" in2="BackgroundImageFix" result="effect1_dropShadow_483_210"/>
<feBlend mode="normal" in="SourceGraphic" in2="effect1_dropShadow_483_210" result="shape"/>
</filter>
</defs>
</svg>
