<svg width="57" height="90" viewBox="0 0 57 90" fill="none" xmlns="http://www.w3.org/2000/svg">
<path d="M14.4222 2.88119C14.4222 2.14204 14.2392 1.43317 13.9135 0.910517C13.5878 0.387863 13.146 0.0942383 12.6853 0.0942383C12.2246 0.0942383 11.7828 0.387863 11.4571 0.910517C11.1313 1.43317 10.9483 2.14204 10.9483 2.88119V5.66814H7.47437C5.63168 5.66814 3.86446 6.84263 2.56148 8.93325C1.2585 11.0239 0.526489 13.8594 0.526489 16.8159L0.526489 22.3898H56.1095V16.8159C56.1095 13.8594 55.3775 11.0239 54.0745 8.93325C52.7716 6.84263 51.0043 5.66814 49.1616 5.66814H45.6877V2.88119C45.6877 2.14204 45.5047 1.43317 45.179 0.910517C44.8532 0.387863 44.4114 0.0942383 43.9507 0.0942383C43.4901 0.0942383 43.0483 0.387863 42.7225 0.910517C42.3968 1.43317 42.2138 2.14204 42.2138 2.88119V5.66814H14.4222V2.88119ZM56.1095 78.1288V27.9637H0.526489V78.1288C0.526489 81.0854 1.2585 83.9209 2.56148 86.0115C3.86446 88.1021 5.63168 89.2766 7.47437 89.2766H49.1616C51.0043 89.2766 52.7716 88.1021 54.0745 86.0115C55.3775 83.9209 56.1095 81.0854 56.1095 78.1288ZM38.2326 49.4455L27.8108 66.1672C27.6495 66.4268 27.4578 66.6327 27.2468 66.7732C27.0357 66.9137 26.8095 66.986 26.581 66.986C26.3526 66.986 26.1263 66.9137 25.9153 66.7732C25.7043 66.6327 25.5126 66.4268 25.3513 66.1672L20.1404 57.8064C19.8142 57.2831 19.631 56.5733 19.631 55.8332C19.631 55.0932 19.8142 54.3834 20.1404 53.8601C20.4665 53.3368 20.9089 53.0428 21.3701 53.0428C21.8314 53.0428 22.2737 53.3368 22.5999 53.8601L26.581 60.2533L35.7731 45.4992C36.0992 44.9759 36.5416 44.6819 37.0029 44.6819C37.4641 44.6819 37.9065 44.9759 38.2326 45.4992C38.5588 46.0225 38.742 46.7323 38.742 47.4724C38.742 48.2125 38.5588 48.9222 38.2326 49.4455Z" fill="#8E8686"/>
</svg>
