<svg width="162" height="54" viewBox="0 0 162 54" fill="none" xmlns="http://www.w3.org/2000/svg">
<path d="M50.5428 3.84504V3.86156V3.87808V23.9384H50.5396C50.5331 24.7082 49.9096 25.3308 49.1374 25.3308C49.1341 25.3308 49.1341 25.3301 49.1323 25.3301V25.3318H29.1028C29.0832 25.3324 29.0641 25.3384 29.0446 25.3384C28.2694 25.3384 27.6393 24.7115 27.6393 23.9381V23.8622V23.849C28.3673 12.4462 37.4546 3.31759 48.8562 2.49094L49.1348 2.46765C49.8984 2.46765 50.5205 3.07068 50.5403 3.82768H50.5435L50.5428 3.84504ZM50.5428 50.1542V50.1733H50.5396C50.5198 50.9298 49.8977 51.5326 49.1341 51.5326L48.8555 51.5102C37.4543 50.6828 28.3667 41.554 27.6387 30.1515V30.1383V30.0619C27.6387 29.2884 28.2687 28.6616 29.044 28.6616C29.0635 28.6616 29.0826 28.6665 29.1022 28.6682H49.132V28.6698H49.1366C49.9088 28.6698 50.5327 29.2924 50.5388 30.0616H50.5421V50.122V50.1386L50.5428 50.1542Z" fill="#75227D"/>
<path d="M24.3674 3.84504C24.3674 3.85 24.3707 3.85495 24.3707 3.86156C24.3707 3.86651 24.3674 3.87147 24.3674 3.87808V23.9384H24.3642C24.3625 24.7082 23.7347 25.3308 22.9625 25.3308L22.9593 25.3301V25.3318H2.93067C2.9111 25.3324 2.89153 25.3384 2.8695 25.3384C2.0943 25.3384 1.46728 24.7115 1.46728 23.9381C1.46728 23.9075 1.46399 23.8923 1.46728 23.8622V23.849C2.19473 12.4462 11.2822 3.31759 22.6812 2.49094L22.9628 2.46765C23.7264 2.46765 24.3479 3.07068 24.3644 3.82768H24.3677L24.3674 3.84504ZM2.87465 51.5326C2.11108 51.5326 1.48956 50.9294 1.46998 50.1223L1.47327 30.0622C1.47491 29.293 2.10274 28.6704 2.87793 28.668C2.87793 28.668 22.9462 28.6613 22.9682 28.6613C23.7434 28.6613 24.3704 29.2882 24.3704 30.0617C24.3704 30.0923 24.3737 30.1075 24.3704 30.1509C23.643 41.5537 14.5555 50.6821 3.15654 51.5095L2.87465 51.5326Z" fill="#8F3E8C"/>
<path d="M63.8486 8.47609V13.3766H71.9069V17.052H63.8486V25.2899H59.2619V4.78665H72.8241V8.47609H63.8486ZM87.7667 10.0533V25.2899H83.6317L83.5046 23.6846C83.0154 24.2948 82.4275 24.7618 81.7406 25.0857C81.0537 25.4096 80.2682 25.5715 79.3837 25.5715C77.7936 25.5715 76.5473 25.1115 75.644 24.1915C74.7408 23.2715 74.289 21.8445 74.289 19.9106V10.0533H78.6921V19.9388C78.6921 20.6429 78.8732 21.1662 79.2357 21.5089C79.5979 21.8515 80.099 22.0229 80.7387 22.0229C81.9901 22.0229 82.8602 21.591 83.3495 20.7273V10.0533H87.7667ZM102.646 11.1517C103.488 12.0717 103.909 13.5784 103.909 15.6719V25.2899H99.4915V15.6438C99.4915 14.7613 99.3057 14.1534 98.9342 13.8202C98.5623 13.4869 97.9817 13.3203 97.1911 13.3203C96.1467 13.3203 95.3659 13.7427 94.8486 14.5877V25.2899H90.4595V10.0533H94.5804L94.7355 11.8135C95.2626 11.147 95.8951 10.64 96.6338 10.2927C97.3722 9.9453 98.1933 9.77162 99.0962 9.77162C100.62 9.77162 101.804 10.2316 102.646 11.1517ZM120.023 3.6601V25.2899H116.057L115.846 23.6423C114.848 24.9285 113.573 25.5715 112.021 25.5715C110.779 25.5715 109.711 25.2406 108.817 24.5788C107.923 23.9169 107.244 23.0039 106.778 21.8398C106.312 20.6757 106.079 19.3473 106.079 17.8547V17.5589C106.079 16.0099 106.312 14.6487 106.778 13.4752C107.244 12.3017 107.923 11.391 108.817 10.7433C109.711 10.0955 110.788 9.77162 112.049 9.77162C113.479 9.77162 114.665 10.3161 115.605 11.4051V3.6601H120.023ZM114.639 21.6497C115.048 21.4009 115.37 21.0418 115.605 20.5725V14.7707C115.144 13.8038 114.331 13.3203 113.164 13.3203C112.233 13.3203 111.553 13.7005 111.125 14.4609C110.696 15.2213 110.483 16.254 110.483 17.5589V17.8547C110.483 19.1314 110.69 20.1453 111.103 20.8963C111.517 21.6474 112.195 22.0229 113.136 22.0229C113.728 22.0229 114.23 21.8985 114.639 21.6497ZM127.076 4.49796C127.528 4.91571 127.754 5.45787 127.754 6.12442C127.754 6.7816 127.528 7.31902 127.076 7.73682C126.625 8.15455 126.032 8.36345 125.298 8.36345C124.564 8.36345 123.974 8.15455 123.527 7.73682C123.08 7.31902 122.857 6.7816 122.857 6.12442C122.857 5.45787 123.08 4.91571 123.527 4.49796C123.974 4.0802 124.564 3.87133 125.298 3.87133C126.032 3.87133 126.625 4.0802 127.076 4.49796ZM123.11 25.2899V10.0533H127.528V25.2899H123.11ZM142.703 11.1517C143.545 12.0717 143.966 13.5784 143.966 15.6719V25.2899H139.549V15.6438C139.549 14.7613 139.363 14.1534 138.991 13.8202C138.62 13.4869 138.039 13.3203 137.249 13.3203C136.204 13.3203 135.423 13.7427 134.906 14.5877V25.2899H130.517V10.0533H134.638L134.793 11.8135C135.32 11.147 135.953 10.64 136.691 10.2927C137.43 9.9453 138.251 9.77162 139.154 9.77162C140.678 9.77162 141.861 10.2316 142.703 11.1517ZM160.377 10.0533V24.7125C160.377 26.0926 160.064 27.2778 159.438 28.2682C158.813 29.2586 157.933 30.0097 156.799 30.5213C155.665 31.033 154.346 31.2888 152.84 31.2888C151.796 31.2888 150.74 31.087 149.672 30.6833C148.604 30.2796 147.765 29.7116 147.153 28.9794L149.058 26.2897C149.5 26.7779 150.027 27.1651 150.639 27.4515C151.251 27.7378 151.923 27.881 152.657 27.881C153.711 27.881 154.527 27.604 155.105 27.0501C155.684 26.4962 155.973 25.7124 155.973 24.6984V23.9944C155.023 25.0458 153.823 25.5715 152.375 25.5715C151.123 25.5715 150.03 25.2406 149.093 24.5788C148.157 23.9169 147.437 22.9992 146.934 21.8257C146.431 20.6522 146.179 19.3285 146.179 17.8547V17.5589C146.179 16.0193 146.431 14.6628 146.934 13.4893C147.437 12.3158 148.16 11.4028 149.101 10.7503C150.041 10.0979 151.142 9.77162 152.403 9.77162C154.04 9.77162 155.315 10.3302 156.228 11.4474L156.397 10.0533H160.377ZM155.973 20.8119V14.5313C155.465 13.724 154.647 13.3203 153.518 13.3203C152.567 13.3203 151.841 13.7122 151.337 14.4961C150.834 15.28 150.582 16.3009 150.582 17.5589V17.8547C150.582 19.0845 150.829 20.0866 151.323 20.8611C151.817 21.6356 152.539 22.0229 153.49 22.0229C154.619 22.0229 155.447 21.6192 155.973 20.8119ZM74.4755 47.5895C73.7886 48.6736 72.8267 49.5162 71.5893 50.1172C70.352 50.7178 68.9055 51.0183 67.2495 51.0183C65.4809 51.0183 63.9519 50.6169 62.6631 49.8145C61.374 49.0117 60.3861 47.864 59.6993 46.3713C59.0124 44.8786 58.6689 43.1136 58.6689 41.0766V39.8938C58.6689 37.8753 59.0217 36.115 59.7273 34.613C60.4333 33.1109 61.4327 31.9562 62.7265 31.1488C64.0203 30.3414 65.528 29.9377 67.2495 29.9377C68.9527 29.9377 70.4111 30.2499 71.6246 30.8742C72.8382 31.4985 73.7814 32.3622 74.4542 33.4652C75.1271 34.5684 75.5292 35.838 75.6609 37.2743H71.0882C71.013 36.054 70.6839 35.1504 70.1004 34.5637C69.5172 33.9769 68.5668 33.6835 67.2495 33.6835C65.9042 33.6835 64.9117 34.1764 64.272 35.1621C63.6319 36.1479 63.3122 37.7155 63.3122 39.8656V41.0766C63.3122 42.5412 63.4415 43.724 63.7003 44.6251C63.9591 45.5266 64.3753 46.193 64.9491 46.6248C65.5233 47.0565 66.2901 47.2724 67.2495 47.2724C68.4822 47.2724 69.4067 46.9911 70.023 46.4277C70.6389 45.8643 70.9849 44.9961 71.0601 43.8223H75.6325C75.5479 45.2496 75.1623 46.5051 74.4755 47.5895ZM82.0653 29.9448C82.5168 30.3625 82.7425 30.9047 82.7425 31.5713C82.7425 32.2284 82.5168 32.7659 82.0653 33.1836C81.6135 33.6014 81.021 33.8103 80.2869 33.8103C79.5533 33.8103 78.9629 33.6014 78.5157 33.1836C78.069 32.7659 77.8454 32.2284 77.8454 31.5713C77.8454 30.9047 78.069 30.3625 78.5157 29.9448C78.9629 29.527 79.5533 29.3181 80.2869 29.3181C81.021 29.3181 81.6135 29.527 82.0653 29.9448ZM78.0996 50.7366V35.5001H82.5168V50.7366H78.0996ZM94.5379 35.3874L94.4817 39.6403C93.7571 39.5651 93.2491 39.5275 92.9575 39.5275C92.186 39.5275 91.5578 39.6497 91.0733 39.8938C90.5887 40.1379 90.2337 40.5039 90.0077 40.992V50.7366H85.6045V35.5001H89.7398L89.8806 37.3731C90.2665 36.6783 90.7439 36.1455 91.313 35.7747C91.8825 35.4039 92.5291 35.2185 93.2538 35.2185C93.7805 35.2185 94.2085 35.2748 94.5379 35.3874ZM109.086 45.3573C109.086 46.4559 108.803 47.4344 108.238 48.2936C107.674 49.1524 106.907 49.8214 105.938 50.3002C104.969 50.7789 103.887 51.0183 102.692 51.0183C101.159 51.0183 99.858 50.6849 98.7899 50.0185C97.7221 49.352 96.9226 48.439 96.3908 47.2797C95.8591 46.1203 95.5934 44.7943 95.5934 43.3016V42.9494C95.5934 41.4567 95.8591 40.1285 96.3908 38.9641C96.9226 37.8001 97.7199 36.8848 98.783 36.2183C99.8461 35.5517 101.145 35.2185 102.678 35.2185C103.939 35.2185 105.051 35.4602 106.016 35.9437C106.98 36.4271 107.733 37.1264 108.274 38.042C108.815 38.9573 109.086 40.0392 109.086 41.2878H104.95C104.94 40.5462 104.732 39.9405 104.322 39.4711C103.913 39.0017 103.332 38.7671 102.579 38.7671C101.582 38.7671 100.902 39.1402 100.54 39.8866C100.178 40.6329 99.9966 41.6538 99.9966 42.9494V43.3016C99.9966 44.6251 100.178 45.6506 100.54 46.3785C100.902 47.1061 101.591 47.4699 102.608 47.4699C103.313 47.4699 103.878 47.2797 104.301 46.8992C104.724 46.5192 104.941 46.0053 104.95 45.3573H109.086ZM111.411 50.7366V29.1069H115.828V50.7366H111.411ZM132.45 44.5549H122.868C123.037 45.4561 123.428 46.167 124.039 46.6881C124.65 47.2091 125.432 47.4699 126.382 47.4699C127.116 47.4699 127.793 47.3382 128.414 47.0753C129.035 46.8125 129.567 46.4042 130.009 45.8502L132.083 48.3146C131.547 49.075 130.761 49.7158 129.726 50.2369C128.691 50.7579 127.483 51.0183 126.099 51.0183C124.528 51.0183 123.159 50.6874 121.993 50.0257C120.826 49.3636 119.932 48.4697 119.311 47.3429C118.69 46.2165 118.38 44.9773 118.38 43.6252V43.0901C118.38 41.5789 118.667 40.2294 119.241 39.0415C119.815 37.854 120.645 36.92 121.732 36.2394C122.818 35.5588 124.114 35.2185 125.62 35.2185C127.059 35.2185 128.292 35.5212 129.317 36.1267C130.343 36.7323 131.121 37.5958 131.653 38.7179C132.185 39.8396 132.45 41.1609 132.45 42.6818V44.5549ZM128.132 41.2878C128.132 40.4992 127.918 39.8819 127.49 39.436C127.061 38.9902 126.429 38.7671 125.591 38.7671C124.095 38.7671 123.192 39.7246 122.882 41.6397H128.132V41.2878Z" fill="#262838"/>
</svg>
