<svg width="66" height="66" viewBox="0 0 66 66" fill="none" xmlns="http://www.w3.org/2000/svg">
<path fill-rule="evenodd" clip-rule="evenodd" d="M33 0C14.782 0 0 14.782 0 33C0 51.2178 14.782 66 33 66C51.1821 66 66 51.2178 66 33C66 14.782 51.1821 0 33 0ZM54.797 15.2115C58.734 20.0076 61.0967 26.128 61.1682 32.7495C60.2374 32.5705 50.9318 30.6735 41.5542 31.8546C41.3395 31.3894 41.1605 30.8883 40.9458 30.3872C40.3731 29.0271 39.7288 27.6312 39.0846 26.307C49.4642 22.0836 54.1888 15.999 54.797 15.2115ZM33 4.86768C40.1583 4.86768 46.7083 7.55205 51.6835 11.9544C51.1821 12.6703 46.9228 18.3612 36.9013 22.1193C32.2842 13.6367 27.1659 6.69304 26.3785 5.6193C28.4902 5.11821 30.7093 4.86768 33 4.86768ZM21.0098 7.5163C21.7614 8.5184 26.7723 15.4979 31.461 23.8015C18.2896 27.3091 6.65729 27.2376 5.40457 27.2376C7.22989 18.5043 13.1356 11.2386 21.0098 7.5163ZM4.79609 33.0358C4.79609 32.7495 4.79609 32.4632 4.79609 32.1768C6.01301 32.2125 19.6855 32.3916 33.7516 28.1682C34.5748 29.7429 35.3265 31.3536 36.0423 32.9642C35.6844 33.0716 35.2907 33.179 34.9327 33.2863C20.4013 37.9751 12.6703 50.7884 12.0261 51.8623C7.55205 46.887 4.79609 40.2657 4.79609 33.0358ZM33 61.204C26.4859 61.204 20.4729 58.9847 15.7125 55.2626C16.2137 54.2245 21.9404 43.2006 37.8318 37.653C37.9035 37.6172 37.9392 37.6172 38.0109 37.5813C41.9837 47.8537 43.5944 56.4795 44.0238 58.949C40.6236 60.4166 36.9013 61.204 33 61.204ZM48.7126 56.3723C48.4261 54.654 46.9233 46.4218 43.2365 36.2929C52.0772 34.897 59.8079 37.1877 60.7745 37.5098C59.5577 45.3481 55.0477 52.113 48.7126 56.3723Z" fill="#C32361"/>
</svg>
