<svg width="122" height="18" viewBox="0 0 122 18" fill="none" xmlns="http://www.w3.org/2000/svg">
<path d="M16.4615 6.5338V4.8877C16.4615 4.8877 16.8934 0.242554 8.32697 0.242554C0.380366 0.242554 0 4.8877 0 4.8877V13.161C0 13.161 0.667989 17.7574 8.32814 17.7574C14.8355 17.7574 16.4625 14.4687 16.4625 14.4687V8.56442H8.32814V10.7897H12.1552V14.4687C12.1552 14.4687 11.9639 15.5322 8.32814 15.5322C4.06781 15.5322 4.30612 13.161 4.30612 13.161V4.8877C4.30612 4.8877 4.06781 2.37287 8.32814 2.37287C12.491 2.37287 12.1552 4.8877 12.1552 4.8877V6.5338H16.4615Z" fill="#005596"/>
<path d="M31.4893 6.06056V17.2403H34.9583V8.58964C34.9583 8.58964 34.9583 7.16073 37.783 7.16073C40.631 7.16073 40.631 8.56471 40.631 8.56471V17.2498H44.1V8.20156C44.1 8.20156 43.9568 5.25116 37.783 5.25116C35.6697 5.25116 34.2658 5.59771 33.3324 6.05226L33.357 6.04989L31.4893 6.06056Z" fill="#005596"/>
<path d="M59.0586 6.06056V17.2403H62.5289V8.58964C62.5289 8.58964 62.5289 7.16073 65.3522 7.16073C68.1991 7.16073 68.1991 8.56471 68.1991 8.56471V17.2498H71.6694V8.20156C71.6694 8.20156 71.5261 5.25116 65.3522 5.25116C63.2367 5.25116 61.835 5.59771 60.9017 6.05226L60.924 6.04989L59.0586 6.06056Z" fill="#005596"/>
<path d="M94.1351 12.4118H84.9934C84.9934 12.4118 84.971 14.4816 84.9863 14.4816C85.0004 14.4828 84.9934 15.895 87.8191 15.895C90.666 15.895 90.6707 14.4744 90.6707 14.4744L90.666 13.5476H94.1351V14.4673C94.1351 14.4673 94.3992 17.756 87.8191 17.756C81.2366 17.756 81.5243 14.4673 81.5243 14.4673V8.73266C81.5243 8.73266 81.2613 5.44403 87.8191 5.44403C94.4226 5.44403 94.1351 8.7576 94.1351 8.7576V12.4118ZM84.9887 8.80507L84.9934 10.088H90.666C90.666 10.088 90.6754 8.80031 90.6765 8.80507C90.6765 8.80507 90.6824 7.35479 87.8191 7.35479C84.9922 7.35479 84.9887 8.80507 84.9887 8.80507Z" fill="#005596"/>
<path d="M107.966 10.2981V8.7576C107.966 8.7576 108.254 5.44403 101.649 5.44403C95.0913 5.44403 95.3554 8.73266 95.3554 8.73266V14.4673C95.3554 14.4673 95.0678 17.756 101.649 17.756C108.228 17.756 107.966 14.4673 107.966 14.4673V13.0396H104.497L104.502 14.4744C104.502 14.4744 104.497 15.895 101.649 15.895C98.8246 15.895 98.8327 14.4673 98.8174 14.4649C98.7999 14.4649 98.8246 8.80388 98.8246 8.80388C98.835 8.80388 98.8738 7.3536 101.792 7.3536C104.545 7.3536 104.497 8.78014 104.497 8.78014V10.2886L107.966 10.2981Z" fill="#005596"/>
<path d="M72.46 5.86323H73.5588V3.17987H77.0301V5.86442H80.8338V7.75262H77.0301V14.6242C77.0301 14.6242 77.2204 16.3652 80.6683 15.8858C80.6683 15.8858 80.6882 17.5913 80.6636 17.5936C77.6735 17.9852 73.5588 17.6707 73.5588 14.6242V7.75262H72.46V5.86323Z" fill="#005596"/>
<path d="M109.331 0.392166C109.331 0.392166 112.801 0.423023 112.801 0.387419C112.801 0.362496 112.781 5.5156 112.802 5.5156C113.566 5.35064 114.484 5.24975 115.624 5.24975C121.797 5.24975 121.941 8.20016 121.941 8.20016V17.2483H118.473V8.5645C118.473 8.5645 118.473 7.16052 115.624 7.16052C112.801 7.16052 112.801 8.58942 112.801 8.58942V17.24H109.331V0.392166Z" fill="#005596"/>
<path d="M57.888 12.4118H48.7463C48.7463 12.4118 48.724 14.4816 48.7393 14.4816C48.7557 14.4828 48.7463 15.895 51.5721 15.895C54.4189 15.895 54.4236 14.4744 54.4236 14.4744L54.4189 13.5476H57.888V14.4673C57.888 14.4673 58.1522 17.756 51.5721 17.756C44.9908 17.756 45.2772 14.4673 45.2772 14.4673V8.73266C45.2772 8.73266 45.0143 5.44403 51.5721 5.44403C58.1769 5.44403 57.888 8.7576 57.888 8.7576V12.4118ZM48.7416 8.80507L48.7463 10.088H54.4189C54.4189 10.088 54.4283 8.80031 54.4295 8.80507C54.4295 8.80507 54.4354 7.35479 51.5721 7.35479C48.7452 7.35479 48.7416 8.80507 48.7416 8.80507Z" fill="#005596"/>
<path d="M30.3175 12.4118H21.177C21.177 12.4118 21.1523 14.4816 21.1676 14.4816C21.1852 14.4828 21.177 15.895 23.998 15.895C26.8472 15.895 26.8543 14.4744 26.8543 14.4744L26.8472 13.5476H30.3175V14.4673C30.3175 14.4673 30.5817 17.756 23.998 17.756C17.4192 17.756 17.7079 14.4673 17.7079 14.4673V8.73266C17.7079 8.73266 17.4426 5.44403 23.998 5.44403C30.604 5.44403 30.3175 8.7576 30.3175 8.7576V12.4118ZM21.1711 8.80507L21.177 10.088H26.8472C26.8472 10.088 26.859 8.80031 26.859 8.80507C26.859 8.80507 26.8637 7.35479 23.998 7.35479C21.177 7.35479 21.1711 8.80507 21.1711 8.80507Z" fill="#005596"/>
</svg>
