<svg width="136" height="28" viewBox="0 0 136 28" fill="none" xmlns="http://www.w3.org/2000/svg">
<path d="M13.724 0.140137H5.73542V0.811037H8.29587V14.1258C8.29587 18.0996 7.16926 19.235 4.71123 19.235C3.78947 19.3382 2.97013 18.6673 2.86771 17.7384C2.86771 17.6351 2.86771 17.5319 2.86771 17.4287C2.86771 15.9837 2.76529 15.1064 1.48506 15.1064C0.204837 15.1064 0 16.4482 0 16.861C0 18.7189 0.819344 20.1122 4.45518 20.1122C8.80795 20.1122 11.1124 18.6673 11.1124 13.7646V0.811037H13.7752L13.724 0.140137Z" fill="#503629"/>
<path d="M14.7486 16.9642C14.3389 16.9642 13.9293 17.119 13.622 17.4287C13.3148 17.7383 13.1611 18.1512 13.1611 18.564C13.1611 18.9769 13.3148 19.3897 13.622 19.6477C13.9293 19.9574 14.3389 20.1122 14.7486 20.1122C15.1583 20.1122 15.568 19.9574 15.8752 19.6477C16.1825 19.3381 16.3361 18.9769 16.3361 18.564C16.3361 17.6867 15.6704 17.0158 14.7998 17.0158H14.7486" fill="#503629"/>
<path d="M32.5182 16.9643C31.6987 16.9643 30.9819 17.6352 30.9307 18.4609V18.5126C30.9307 18.9254 31.1354 19.3383 31.4428 19.5964C31.7499 19.9059 32.1596 20.0609 32.5693 20.0609C32.9791 20.0609 33.3886 19.9059 33.6959 19.5964C34.0033 19.3383 34.1568 18.9254 34.1568 18.5126C34.1568 18.0997 34.0033 17.6868 33.6959 17.3772C33.3886 17.0675 33.0303 16.9127 32.6205 16.9127" fill="#503629"/>
<path d="M26.9869 0.140137H19.1007V0.811037H21.405V15.9837C21.4564 16.603 21.405 17.2223 21.2002 17.8416C20.9955 18.2544 20.6369 18.6157 20.2272 18.7189C19.7663 18.8737 19.2542 18.9769 18.7422 18.9769V19.5963H27.0893V18.9769C26.526 18.9769 26.0139 18.9253 25.5018 18.7705C25.0409 18.6157 24.6824 18.306 24.5288 17.8932C24.3752 17.4803 24.2728 17.0674 24.324 16.6546V11.3906H26.4236C32.4663 11.3906 34.1561 8.96504 34.1561 5.71377C34.1561 2.46247 33.0807 0.140137 26.9869 0.140137ZM25.8603 10.6165H24.2728V0.914251H25.7066C30.3667 0.914251 31.4932 2.82374 31.4932 5.9202C31.4932 9.01665 29.6498 10.7197 25.9627 10.7197" fill="#503629"/>
<path d="M59.0956 17.7898C58.9421 17.3769 58.8907 16.9125 58.9421 16.448V0.810882H61.0415V0.191589H56.0742L50.0316 15.003C50.0316 15.0546 49.9804 15.1062 49.9292 15.1062C49.878 15.1062 49.8268 15.0546 49.7756 15.003C49.7756 15.003 43.528 0.346412 43.4768 0.191589H37.9463V0.810882H40.353V17.2737C40.353 17.635 40.1995 17.9446 40.0459 18.2543C39.8409 18.5639 39.5338 18.7703 39.1753 18.8736C38.8167 18.9768 38.4072 18.9768 38.0487 18.9768V19.5961H43.528V18.9768C43.1695 18.9768 42.8623 18.9252 42.555 18.822C42.1455 18.7187 41.8381 18.5123 41.5822 18.2027C41.3772 17.893 41.2748 17.5834 41.2237 17.2221L41.1725 15.8287V2.82358H41.4796C41.4796 2.82358 48.5976 19.3897 48.5976 19.5961H49.2635L55.9718 2.97841H56.1254V16.3448C56.1254 16.8093 56.0742 17.2737 55.9718 17.7382C55.8183 18.1511 55.5109 18.4607 55.1526 18.6155C54.6917 18.7703 54.2308 18.8736 53.7698 18.8736V19.4929H61.4V18.8736C60.9391 18.8736 60.427 18.7703 59.9661 18.6155C59.5565 18.4091 59.2492 18.0478 59.0956 17.635" fill="#503629"/>
<path d="M69.3886 5.35236C65.2918 5.35236 62.7314 8.03597 62.7314 12.7839C62.7314 19.7508 68.1082 20.1637 69.2862 20.1637C71.5905 20.1637 75.9433 18.7188 75.9433 12.629C75.8921 7.88115 73.1269 5.35236 69.3886 5.35236ZM69.3374 19.2864C66.2648 19.2864 65.8039 17.7382 65.8039 12.8355C65.8039 9.0165 66.06 6.12649 69.3374 6.12649C72.8707 6.12649 72.9219 9.11972 72.9219 12.5258C72.9219 17.5318 72.0515 19.2864 69.3374 19.2864Z" fill="#503629"/>
<path d="M86.5944 5.55896C84.1365 5.55896 83.4196 7.00397 82.7026 8.5006H82.4978C82.4978 8.5006 82.1393 6.38468 82.0369 5.71379H77.2744V6.43629H79.8349V16.0869C79.8861 16.7578 79.7837 17.4287 79.5276 18.048C79.2716 18.5125 78.6571 18.7705 77.7353 18.7705H77.3256V19.6478H85.2119V18.7705H84.8534C83.8292 18.7705 83.3684 18.5641 83.1123 18.0996C82.8563 17.4803 82.7026 16.7578 82.805 16.0869V11.081C82.805 9.42954 84.0853 7.46845 85.5704 7.46845C87.1065 7.46845 87.1065 9.894 88.899 8.91345C89.8206 8.34578 89.6158 5.55896 86.5944 5.55896Z" fill="#503629"/>
<path d="M118.088 18.1511C117.217 18.1511 116.961 17.6867 116.91 16.9125V9.27461C117.013 8.24245 116.654 7.15868 115.937 6.38457C115.22 5.66207 113.787 5.2492 111.738 5.2492C110.202 5.14598 108.717 5.50724 107.385 6.33296C106.617 6.79744 106.156 7.67477 106.156 8.5521C106.105 8.91334 106.259 9.27461 106.515 9.53265C106.771 9.73906 107.078 9.84228 107.385 9.84228C108.153 9.84228 108.614 9.42943 108.768 8.39727C108.768 7.77799 109.024 7.21029 109.382 6.74583C109.894 6.28135 110.612 6.02331 111.277 6.12653C112.045 6.02331 112.865 6.33296 113.377 6.95225C113.787 7.57155 113.94 8.24245 113.94 8.96495V11.3905C111.431 11.5969 105.439 12.113 105.695 16.6545C105.9 18.564 107.539 20.0091 109.434 19.9573C111.226 19.9057 112.916 19.0801 114.042 17.6351C114.298 18.9252 115.425 19.8025 116.705 19.751C118.549 19.751 119.675 18.822 119.778 16.6029H119.317C119.215 17.6351 118.6 18.1511 118.088 18.1511ZM113.94 16.6545C113.94 16.7061 113.94 16.7061 113.94 16.7577V16.8093C113.121 17.7383 111.994 18.3059 110.765 18.4608C109.587 18.5124 108.563 17.5834 108.512 16.3449C108.512 16.2416 108.512 16.1384 108.512 16.0352C108.512 13.4548 112.045 12.1646 113.991 12.1646L113.94 16.6545Z" fill="#503629"/>
<path d="M134.271 18.0481C133.912 17.4288 133.758 16.7063 133.758 15.9838V9.68762C133.81 8.8619 133.656 8.08778 133.298 7.36528C132.99 6.79758 132.478 6.28152 131.915 5.97186C131.249 5.66223 130.532 5.5074 129.815 5.5074C127.921 5.45579 126.18 6.48795 125.309 8.191H125.002L124.49 5.66223H120.239V6.38473H122.39V15.9838C122.39 16.5515 122.339 17.0675 122.236 17.6352C122.134 18.0481 121.827 18.4093 121.417 18.5125C121.059 18.6674 120.649 18.719 120.239 18.719V19.5962H127.05V18.719C126.538 18.7706 126.026 18.5125 125.667 18.1513C125.36 17.532 125.207 16.8611 125.309 16.1902V12.526C125.155 11.1842 125.36 9.84244 125.821 8.55224C126.384 7.5717 127.46 6.95241 128.586 7.00402C129.355 6.9008 130.123 7.31367 130.481 7.98457C130.84 9.01672 130.993 10.1521 130.942 11.2358V15.7773C130.993 16.345 130.993 16.9127 130.942 17.4804C130.891 17.8932 130.686 18.2545 130.328 18.4609C129.969 18.6674 129.611 18.7706 129.252 18.7706V19.648H135.858V18.7706C135.039 18.6674 134.527 18.4609 134.271 18.0481Z" fill="#503629"/>
<path d="M103.391 4.78464C102.93 4.99108 102.623 5.40393 102.572 5.86841C102.469 6.43608 102.264 6.74573 101.957 6.84895C101.65 6.95217 101.291 6.90056 100.984 6.79734C99.7552 5.71358 98.1165 5.19751 96.529 5.30071C93.7125 5.09429 91.2032 7.21019 90.9985 10.0486C90.9985 10.2551 90.9985 10.4615 90.9985 10.6679C90.9985 13.6612 92.125 15.003 94.583 15.5706C94.7366 15.5706 94.7366 15.7771 94.583 15.7771C92.4834 16.1383 90.6399 16.7576 90.6399 18.8219C90.6399 19.8025 91.2544 20.6799 92.1762 20.9894C93.5076 21.4539 94.8903 21.6603 96.2729 21.6087C97.3482 21.6087 98.4748 21.6603 99.5502 21.7636C100.165 21.8152 100.779 22.0216 101.343 22.3829C101.803 22.7958 102.06 23.3635 102.008 23.9828C102.008 24.9632 101.394 25.8406 100.523 26.2019C99.3455 26.7696 98.0653 27.0275 96.785 26.9759C95.6072 27.0791 94.3782 26.8211 93.354 26.2019C92.7395 25.7374 92.4322 24.9631 92.6371 24.2407C92.8419 23.673 92.5346 23.0022 91.9201 22.7958H91.7665C91.3056 22.744 90.8447 22.9506 90.5887 23.3117C90.3838 23.673 90.2302 24.1375 90.2814 24.602C90.3326 25.9437 91.2544 27.0275 92.586 27.2856C93.8149 27.6984 95.0951 27.8533 96.3752 27.8533C97.8604 27.9049 99.3455 27.6468 100.728 27.0275C102.367 26.3051 103.493 24.7052 103.493 22.899C103.545 22.0216 103.289 21.196 102.828 20.4733C101.445 18.5639 99.499 18.8219 95.0951 18.6155C92.9955 18.6155 92.586 18.2542 92.586 17.635C92.586 16.6544 93.354 16.2931 96.3752 15.8287C99.3967 15.3642 102.213 14.2289 102.213 10.5647C102.213 9.68738 102.06 8.75844 101.65 7.9327C102.213 8.08752 102.828 8.08752 103.391 7.9327C103.903 7.77789 104.364 7.41663 104.62 6.95217C104.876 6.59091 104.978 6.07484 104.876 5.66197C104.62 4.88786 104.108 4.5782 103.391 4.78464ZM96.5802 14.9514C94.7879 14.9514 93.7125 14.2805 93.7125 10.6163C93.7125 8.03592 94.583 6.12645 96.5802 6.12645C98.8334 6.12645 99.4478 7.88111 99.4478 10.5647C99.3966 14.3837 98.2189 14.9514 96.5802 14.9514Z" fill="#503629"/>
</svg>
