<svg width="64" height="64" viewBox="0 0 64 64" fill="none" xmlns="http://www.w3.org/2000/svg">
<path d="M31.9988 0.105469C14.3801 0.105469 0.0966797 14.3885 0.0966797 32.0072C0.0966797 49.6266 14.3801 63.9084 31.9988 63.9084C49.6194 63.9084 63.9012 49.6266 63.9012 32.0072C63.9012 14.3897 49.6194 0.106992 31.9984 0.106992L31.9988 0.105469ZM46.6288 46.1168C46.0577 47.0542 44.831 47.3511 43.8937 46.7759C36.4033 42.2007 26.974 41.1645 15.8693 43.7017C14.7992 43.9455 13.7325 43.275 13.4887 42.2045C13.2437 41.134 13.9115 40.0674 14.9843 39.8235C27.1367 37.046 37.5607 38.2426 45.9697 43.3817C46.907 43.9569 47.2043 45.1799 46.6288 46.1168ZM50.5337 37.4293C49.8137 38.6007 48.2821 38.9702 47.1128 38.2502C38.5374 32.9782 25.4658 31.4518 15.3229 34.5306C14.0075 34.9279 12.6182 34.1866 12.2189 32.8735C11.8228 31.558 12.5645 30.1714 13.8776 29.7714C25.4635 26.2559 39.867 27.9588 49.7145 34.0102C50.8843 34.7302 51.2537 36.2617 50.5337 37.4297V37.4293ZM50.8688 28.3839C40.5869 22.2769 23.6232 21.7154 13.8064 24.6948C12.23 25.1729 10.5629 24.283 10.0853 22.7066C9.60752 21.1295 10.4967 19.4635 12.0742 18.9843C23.3432 15.5634 42.0765 16.2243 53.9141 23.2518C55.335 24.0933 55.7999 25.9245 54.9581 27.3405C54.1199 28.7584 52.2839 29.2259 50.8705 28.3839H50.8688Z" fill="#1ED760"/>
</svg>
