<svg width="161" height="50" viewBox="0 0 161 50" fill="none" xmlns="http://www.w3.org/2000/svg">
<path fill-rule="evenodd" clip-rule="evenodd" d="M140.556 9.1639C139.869 8.86789 139.056 8.80233 138.276 9.03675C137.497 9.27117 136.899 9.75988 136.561 10.3618C136.223 10.9638 136.149 11.677 136.416 12.3604C136.683 13.0438 137.241 13.5682 137.927 13.8643C138.614 14.1603 139.427 14.2258 140.207 13.9914C140.986 13.757 141.585 13.2683 141.922 12.6663C142.257 12.0644 142.335 11.3512 142.067 10.6678C141.8 9.98437 141.242 9.4599 140.556 9.1639ZM130.531 9.50361L130.586 9.78968C130.803 9.77776 130.996 9.78968 131.161 9.82544C131.327 9.8612 131.476 9.93073 131.614 10.0321C131.721 10.1095 131.809 10.191 131.877 10.2784C131.945 10.3658 131.986 10.4492 132 10.5287C132.016 10.6161 131.993 10.6996 131.932 10.7731C131.871 10.8486 131.787 10.8923 131.682 10.9082C131.485 10.936 131.338 10.8605 131.247 10.6837C131.139 10.4731 130.953 10.3499 130.685 10.3142L130.892 11.4128C131.152 11.4366 131.361 11.4624 131.517 11.4902C131.673 11.518 131.821 11.5697 131.954 11.6472C132.097 11.7266 132.215 11.828 132.308 11.9531C132.401 12.0783 132.462 12.2213 132.491 12.3802C132.53 12.5809 132.512 12.7756 132.435 12.9663C132.36 13.157 132.229 13.3219 132.04 13.4649C131.852 13.606 131.617 13.7073 131.331 13.7689L131.454 14.4265C131.474 14.5298 131.476 14.6073 131.46 14.6589C131.447 14.7106 131.401 14.7404 131.322 14.7523C131.25 14.7622 131.195 14.7503 131.159 14.7165C131.123 14.6827 131.098 14.6231 131.082 14.5417L130.948 13.8285C130.71 13.8404 130.495 13.8206 130.305 13.7729C130.114 13.7252 129.951 13.6537 129.813 13.5603C129.675 13.4669 129.566 13.3636 129.489 13.2544C129.41 13.1431 129.36 13.0299 129.34 12.9166C129.324 12.8332 129.346 12.7517 129.41 12.6723C129.473 12.5948 129.559 12.5471 129.67 12.5292C129.761 12.5153 129.84 12.5233 129.911 12.5511C129.979 12.5789 130.033 12.6246 130.069 12.6882C130.151 12.8253 130.219 12.9286 130.273 13.0001C130.327 13.0716 130.402 13.1332 130.495 13.1828C130.588 13.2345 130.706 13.2683 130.846 13.2822L130.615 12.0544C130.334 12.0266 130.096 11.9869 129.899 11.9333C129.704 11.8796 129.534 11.7862 129.396 11.6551C129.256 11.524 129.165 11.3412 129.12 11.1088C129.063 10.8068 129.127 10.5406 129.31 10.3161C129.494 10.0917 129.79 9.93272 130.201 9.84134L130.148 9.56122C130.121 9.41421 130.171 9.33077 130.298 9.31289C130.427 9.297 130.504 9.36057 130.531 9.50361ZM130.488 11.371L130.298 10.3598C130.137 10.4274 130.017 10.5049 129.935 10.5903C129.854 10.6757 129.827 10.7929 129.856 10.938C129.881 11.077 129.947 11.1763 130.049 11.234C130.151 11.2936 130.296 11.3393 130.488 11.371ZM131.019 12.1001L131.236 13.2563C131.431 13.1928 131.576 13.0974 131.667 12.9742C131.757 12.8511 131.789 12.718 131.762 12.5749C131.732 12.422 131.658 12.3107 131.533 12.2432C131.408 12.1756 131.236 12.1279 131.019 12.1001ZM128.866 6.47797C128.587 6.01906 128.324 5.55022 128.089 5.07144C128.526 4.48141 130.599 4.25295 131.275 4.60458L130.939 5.82636C131.17 5.44294 131.243 5.28997 131.383 5.07541C131.465 5.1072 131.544 5.14495 131.619 5.18667C131.798 5.28798 131.963 5.40519 132.027 5.59194C132.068 5.71312 132.052 5.84424 131.95 5.99125L130.932 7.45937C130.767 7.45937 130.602 7.44745 130.438 7.42162C130.482 7.26468 130.538 7.08986 130.581 6.93093L130.205 7.43156C129.711 7.41169 129.337 7.52095 129.011 7.7375L127.481 6.57731C127.391 6.50777 127.341 6.43228 127.327 6.35282C127.268 6.03098 127.767 5.6714 128.037 5.52241L128.866 6.47797ZM130.96 8.66922L130.522 7.70571C131.624 7.72558 133.69 9.38243 134.406 10.1691C134.771 10.5704 135.111 11.0214 135.414 11.5359C135.797 12.2769 135.899 13.0259 135.6 13.6259C137.54 13.906 138.521 14.8695 139.296 15.6363C139.593 15.9284 139.96 16.574 140.47 16.4926C141.428 16.3416 144.292 16.2025 144.573 16.1151L145.448 18.3242C144.616 18.5487 139.575 19.252 139.072 19.109C138.206 18.8169 137.692 18.4335 137.245 18.0402L135.587 20.2155C136.094 20.4837 136.602 20.6903 137.082 20.887C138.768 21.5763 140.155 22.1445 140.456 24.4927C140.483 24.6993 140.49 24.9039 140.486 25.1125C140.483 25.3231 140.47 25.5138 140.458 25.7125V25.7185C140.454 25.784 140.449 25.8536 140.443 25.9906L140.368 27.9594L137.019 27.9673C137.08 26.2807 137.069 27.2363 137.069 25.5556C137.082 25.3311 137.096 25.1225 137.082 24.9337C137.071 24.7669 137.037 24.6119 136.962 24.4689L136.939 24.4232C136.858 24.2682 136.785 24.1252 136.729 24.1014C136.466 23.9941 136.038 23.857 135.544 23.7159C135.05 23.5729 134.51 23.4299 134.019 23.3067C133.137 25.8297 133.133 26.4833 131.744 28.8295L128.22 28.8474C129.571 25.937 129.745 24.8523 130.785 21.8426C129.315 20.0049 131.807 18.799 132.331 16.425C131.886 16.3893 130.799 16.3714 129.861 16.6098C128.691 16.9058 127.828 17.4322 127.112 18.2627L125.841 16.1946C125.918 16.1866 126.065 15.9502 127.479 15.2668C127.178 15.1556 126.924 14.9847 126.747 14.7284C125.68 13.159 126.684 10.9638 127.713 9.55923C127.849 9.37448 127.991 9.19966 128.143 9.03675C128.535 8.61757 128.95 8.12688 129.505 7.86861L129.111 8.87981L129.756 7.80107L130.191 7.7375L130.96 8.66922Z" fill="#D00000"/>
<path d="M22.9053 10.2375V29H18.3349V17.7478L14.1387 29H10.4504L6.22745 17.7211V29H1.65709V10.2375H7.056L12.3213 23.2269L17.5331 10.2375H22.9053ZM41.4264 14.0862L32.0719 36.0827H27.1541L30.5752 28.4922L24.5081 14.0862H29.613L33.0608 23.414L36.4819 14.0862H41.4264Z" fill="black"/>
<path d="M50.1084 10.2375C52.0862 10.2375 53.8146 10.6295 55.2935 11.4135C56.7724 12.1975 57.9128 13.3022 58.7146 14.7276C59.5342 16.1353 59.9441 17.7656 59.9441 19.6187C59.9441 21.454 59.5342 23.0844 58.7146 24.5098C57.9128 25.9353 56.7635 27.04 55.2668 27.824C53.7879 28.608 52.0684 29 50.1084 29H43.0791V10.2375H50.1084ZM49.8144 25.0444C51.5428 25.0444 52.8881 24.5722 53.8502 23.6278C54.8124 22.6835 55.2935 21.3471 55.2935 19.6187C55.2935 17.8904 54.8124 16.5451 53.8502 15.5829C52.8881 14.6207 51.5428 14.1396 49.8144 14.1396H47.6495V25.0444H49.8144ZM77.0913 21.3025C77.0913 21.7302 77.0645 22.1756 77.0111 22.6389H66.6676C66.7389 23.5655 67.0329 24.2782 67.5496 24.7771C68.0842 25.2582 68.7345 25.4987 69.5007 25.4987C70.6411 25.4987 71.434 25.0176 71.8794 24.0555H76.7438C76.4944 25.0355 76.04 25.9175 75.3807 26.7015C74.7393 27.4855 73.9285 28.1002 72.9485 28.5456C71.9685 28.9911 70.8727 29.2138 69.6611 29.2138C68.2 29.2138 66.8993 28.902 65.7589 28.2784C64.6185 27.6547 63.7276 26.7638 63.0862 25.6056C62.4447 24.4475 62.124 23.0933 62.124 21.5431C62.124 19.9929 62.4358 18.6387 63.0594 17.4805C63.7009 16.3224 64.5918 15.4315 65.7322 14.8078C66.8725 14.1842 68.1822 13.8724 69.6611 13.8724C71.1044 13.8724 72.3873 14.1753 73.5098 14.7811C74.6324 15.3869 75.5054 16.2511 76.1291 17.3736C76.7705 18.4962 77.0913 19.8058 77.0913 21.3025ZM72.414 20.0998C72.414 19.3158 72.1467 18.6922 71.6122 18.2289C71.0776 17.7656 70.4094 17.534 69.6076 17.534C68.8414 17.534 68.1911 17.7567 67.6565 18.2022C67.1398 18.6476 66.8191 19.2802 66.6944 20.0998H72.414ZM84.6073 16.1976C85.0349 15.5027 85.6496 14.9415 86.4515 14.5138C87.2533 14.0862 88.1709 13.8724 89.2044 13.8724C90.4338 13.8724 91.5475 14.1842 92.5453 14.8078C93.5431 15.4315 94.3271 16.3224 94.8973 17.4805C95.4853 18.6387 95.7793 19.984 95.7793 21.5164C95.7793 23.0487 95.4853 24.4029 94.8973 25.5789C94.3271 26.7371 93.5431 27.6369 92.5453 28.2784C91.5475 28.902 90.4338 29.2138 89.2044 29.2138C88.1531 29.2138 87.2355 29.0089 86.4515 28.5991C85.6675 28.1715 85.0527 27.6102 84.6073 26.9153V29H80.0369V9.22182H84.6073V16.1976ZM91.1287 21.5164C91.1287 20.376 90.808 19.4851 90.1665 18.8436C89.5429 18.1844 88.7678 17.8547 87.8413 17.8547C86.9325 17.8547 86.1575 18.1844 85.516 18.8436C84.8924 19.5029 84.5805 20.4027 84.5805 21.5431C84.5805 22.6835 84.8924 23.5833 85.516 24.2425C86.1575 24.9018 86.9325 25.2315 87.8413 25.2315C88.75 25.2315 89.5251 24.9018 90.1665 24.2425C90.808 23.5655 91.1287 22.6567 91.1287 21.5164ZM107.024 25.1245V29H104.698C103.041 29 101.75 28.5991 100.823 27.7973C99.8965 26.9776 99.4332 25.6502 99.4332 23.8149V17.8815H97.6157V14.0862H99.4332V10.4513H104.004V14.0862H106.997V17.8815H104.004V23.8684C104.004 24.3138 104.11 24.6345 104.324 24.8305C104.538 25.0265 104.894 25.1245 105.393 25.1245H107.024ZM116.893 29.2138C115.432 29.2138 114.113 28.902 112.937 28.2784C111.779 27.6547 110.861 26.7638 110.184 25.6056C109.525 24.4475 109.195 23.0933 109.195 21.5431C109.195 20.0107 109.534 18.6655 110.211 17.5073C110.888 16.3313 111.815 15.4315 112.991 14.8078C114.167 14.1842 115.485 13.8724 116.946 13.8724C118.407 13.8724 119.726 14.1842 120.902 14.8078C122.078 15.4315 123.004 16.3313 123.681 17.5073C124.359 18.6655 124.697 20.0107 124.697 21.5431C124.697 23.0755 124.35 24.4296 123.655 25.6056C122.978 26.7638 122.042 27.6547 120.848 28.2784C119.672 28.902 118.354 29.2138 116.893 29.2138ZM116.893 25.2582C117.766 25.2582 118.505 24.9375 119.111 24.296C119.735 23.6545 120.047 22.7369 120.047 21.5431C120.047 20.3493 119.744 19.4316 119.138 18.7902C118.55 18.1487 117.819 17.828 116.946 17.828C116.055 17.828 115.316 18.1487 114.728 18.7902C114.14 19.4138 113.846 20.3315 113.846 21.5431C113.846 22.7369 114.131 23.6545 114.701 24.296C115.289 24.9375 116.02 25.2582 116.893 25.2582ZM152.319 29.2138C151.018 29.2138 149.86 28.9911 148.844 28.5456C147.829 28.1002 147.027 27.4944 146.439 26.7282C145.851 25.9442 145.521 25.0711 145.45 24.1089H149.967C150.02 24.6256 150.261 25.0444 150.688 25.3651C151.116 25.6858 151.642 25.8462 152.265 25.8462C152.835 25.8462 153.272 25.7393 153.575 25.5255C153.896 25.2938 154.056 24.9998 154.056 24.6435C154.056 24.2158 153.833 23.904 153.388 23.708C152.942 23.4942 152.221 23.2625 151.223 23.0131C150.154 22.7636 149.263 22.5053 148.55 22.238C147.837 21.9529 147.223 21.5164 146.706 20.9284C146.189 20.3225 145.931 19.5118 145.931 18.4962C145.931 17.6409 146.163 16.8658 146.626 16.1709C147.107 15.4582 147.802 14.8969 148.711 14.4871C149.637 14.0773 150.733 13.8724 151.998 13.8724C153.869 13.8724 155.339 14.3356 156.408 15.2622C157.495 16.1887 158.119 17.4182 158.279 18.9505H154.056C153.985 18.4338 153.753 18.024 153.361 17.7211C152.987 17.4182 152.488 17.2667 151.864 17.2667C151.33 17.2667 150.92 17.3736 150.635 17.5875C150.35 17.7835 150.207 18.0596 150.207 18.416C150.207 18.8436 150.43 19.1644 150.875 19.3782C151.339 19.592 152.051 19.8058 153.014 20.0196C154.118 20.3047 155.018 20.5898 155.713 20.8749C156.408 21.1422 157.014 21.5876 157.531 22.2113C158.065 22.8171 158.341 23.6367 158.359 24.6702C158.359 25.5433 158.11 26.3273 157.611 27.0222C157.13 27.6993 156.426 28.2338 155.499 28.6258C154.591 29.0178 153.53 29.2138 152.319 29.2138Z" fill="#D00000"/>
<path d="M0.668485 34.5547C10.3985 39.5919 22.142 41.0948 34.9559 40.8863C47.771 40.6778 61.7863 38.752 76.0902 36.8391C104.809 32.9983 134.669 29.2301 159.412 38.9184L160.224 36.8445C134.846 26.9073 104.372 30.8096 75.795 34.6314C61.4508 36.5498 47.5774 38.4534 34.9196 38.6593C22.2607 38.8653 10.9471 37.3678 1.69246 32.5767L0.668485 34.5547Z" fill="black"/>
<path d="M15.1686 43.566C24.3112 48.0647 35.0791 48.903 46.6996 47.9714C58.3185 47.0399 70.9258 44.3244 83.7784 41.6095C109.604 36.1542 136.398 30.7268 159.317 38.984L160.072 36.8885C136.448 28.3774 108.991 34.0073 83.3181 39.4303C70.4216 42.1545 57.968 44.8336 46.5216 45.7512C35.077 46.6687 24.7755 45.8109 16.152 41.5675L15.1686 43.566Z" fill="black"/>
</svg>
