<svg width="224" height="72" viewBox="0 0 224 72" fill="none" xmlns="http://www.w3.org/2000/svg">
<path d="M69.8865 3.98315V4.00599V4.02883V31.7665H69.882C69.873 32.8309 69.0109 33.6918 67.9431 33.6918C67.9387 33.6918 67.9387 33.6909 67.9362 33.6909V33.6932H40.241C40.2139 33.6941 40.1876 33.7024 40.1605 33.7024C39.0886 33.7024 38.2174 32.8356 38.2174 31.7661V31.6612V31.643C39.2241 15.8761 51.7893 3.25384 67.5544 2.11081L67.9397 2.07861C68.9954 2.07861 69.8556 2.91243 69.883 3.95915H69.8875L69.8865 3.98315ZM69.8865 68.0155V68.042H69.882C69.8546 69.088 68.9944 69.9215 67.9387 69.9215L67.5534 69.8905C51.7888 68.7465 39.2233 56.124 38.2166 40.3574V40.3392V40.2337C38.2166 39.1642 39.0878 38.2974 40.1597 38.2974C40.1867 38.2974 40.2131 38.3042 40.2402 38.3065H67.9357V38.3088H67.9421C69.0099 38.3088 69.8725 39.1697 69.881 40.2332H69.8855V67.971V67.994L69.8865 68.0155Z" fill="#75227D"/>
<path d="M33.6928 3.98315C33.6928 3.99001 33.6973 3.99686 33.6973 4.00599C33.6973 4.01284 33.6928 4.01969 33.6928 4.02883V31.7665H33.6883C33.686 32.8309 32.8179 33.6918 31.7502 33.6918L31.7457 33.6909V33.6932H4.05183C4.02478 33.6941 3.99773 33.7024 3.96726 33.7024C2.89538 33.7024 2.02839 32.8356 2.02839 31.7661C2.02839 31.7238 2.02384 31.7028 2.02839 31.6612V31.643C3.03424 15.8761 15.5996 3.25384 31.3612 2.11081L31.7506 2.07861C32.8065 2.07861 33.6658 2.91243 33.6887 3.95915H33.6932L33.6928 3.98315ZM3.97437 69.9215C2.91857 69.9215 2.05919 69.0875 2.03212 67.9715L2.03666 40.2341C2.03893 39.1705 2.90704 38.3096 3.97892 38.3062C3.97892 38.3062 31.7276 38.2971 31.7581 38.2971C32.83 38.2971 33.6969 39.1638 33.6969 40.2333C33.6969 40.2756 33.7015 40.2966 33.6969 40.3567C32.6911 56.1235 20.1257 68.7455 4.36415 69.8895L3.97437 69.9215Z" fill="#8F3E8C"/>
<path d="M88.2843 10.3867V17.1627H99.4266V22.2447H88.2843V33.6354H81.9422V5.28525H100.695V10.3867H88.2843ZM121.356 12.5675V33.6354H115.639L115.463 31.4157C114.787 32.2594 113.974 32.9053 113.024 33.3531C112.074 33.8009 110.988 34.0248 109.765 34.0248C107.566 34.0248 105.843 33.3888 104.594 32.1166C103.345 30.8445 102.72 28.8714 102.72 26.1974V12.5675H108.809V26.2363C108.809 27.2099 109.059 27.9335 109.56 28.4073C110.061 28.8811 110.754 29.118 111.639 29.118C113.369 29.118 114.572 28.5209 115.248 27.3267V12.5675H121.356ZM141.93 14.0862C143.094 15.3583 143.677 17.4418 143.677 20.3365V33.6354H137.568V20.2976C137.568 19.0774 137.311 18.2368 136.798 17.776C136.284 17.3152 135.481 17.0848 134.388 17.0848C132.943 17.0848 131.864 17.6689 131.148 18.8372V33.6354H125.08V12.5675H130.778L130.992 15.0014C131.721 14.0797 132.596 13.3788 133.617 12.8985C134.638 12.4182 135.773 12.178 137.022 12.178C139.129 12.178 140.766 12.8141 141.93 14.0862ZM165.957 3.72754V33.6354H160.474L160.181 31.3573C158.802 33.1357 157.039 34.0248 154.893 34.0248C153.176 34.0248 151.699 33.5672 150.463 32.6521C149.227 31.7369 148.287 30.4745 147.643 28.8649C146.999 27.2553 146.677 25.4185 146.677 23.3546V22.9456C146.677 20.8038 146.999 18.9216 147.643 17.299C148.287 15.6764 149.227 14.4172 150.463 13.5216C151.699 12.6259 153.189 12.178 154.932 12.178C156.909 12.178 158.549 12.9309 159.849 14.4367V3.72754H165.957ZM158.513 28.6021C159.079 28.2581 159.524 27.7615 159.849 27.1125V19.0903C159.212 17.7533 158.087 17.0848 156.473 17.0848C155.186 17.0848 154.245 17.6105 153.654 18.662C153.062 19.7134 152.766 21.1413 152.766 22.9456V23.3546C152.766 25.12 153.052 26.5219 153.624 27.5603C154.197 28.5988 155.133 29.118 156.435 29.118C157.254 29.118 157.947 28.9461 158.513 28.6021ZM175.71 4.88607C176.335 5.4637 176.647 6.21335 176.647 7.135C176.647 8.0437 176.335 8.7868 175.71 9.3645C175.086 9.9421 174.266 10.2309 173.252 10.2309C172.237 10.2309 171.42 9.9421 170.802 9.3645C170.185 8.7868 169.876 8.0437 169.876 7.135C169.876 6.21335 170.185 5.4637 170.802 4.88607C171.42 4.30843 172.237 4.01961 173.252 4.01961C174.266 4.01961 175.086 4.30843 175.71 4.88607ZM170.227 33.6354V12.5675H176.335V33.6354H170.227ZM197.318 14.0862C198.482 15.3583 199.064 17.4418 199.064 20.3365V33.6354H192.957V20.2976C192.957 19.0774 192.7 18.2368 192.186 17.776C191.672 17.3152 190.868 17.0848 189.776 17.0848C188.332 17.0848 187.252 17.6689 186.536 18.8372V33.6354H180.468V12.5675H186.166L186.38 15.0014C187.109 14.0797 187.984 13.3788 189.005 12.8985C190.026 12.4182 191.161 12.178 192.41 12.178C194.518 12.178 196.154 12.8141 197.318 14.0862ZM221.755 12.5675V32.8371C221.755 34.7453 221.322 36.3841 220.457 37.7536C219.593 39.1231 218.376 40.1615 216.809 40.869C215.241 41.5765 213.416 41.9301 211.335 41.9301C209.89 41.9301 208.43 41.6511 206.954 41.0929C205.477 40.5347 204.316 39.7494 203.471 38.7369L206.105 35.0179C206.716 35.6929 207.445 36.2283 208.291 36.6242C209.136 37.0201 210.066 37.2182 211.081 37.2182C212.538 37.2182 213.667 36.8352 214.467 36.0693C215.267 35.3035 215.667 34.2196 215.667 32.8176V31.844C214.353 33.2979 212.694 34.0248 210.691 34.0248C208.961 34.0248 207.448 33.5672 206.154 32.6521C204.859 31.7369 203.864 30.4681 203.168 28.8454C202.472 27.2228 202.124 25.3925 202.124 23.3546V22.9456C202.124 20.8168 202.472 18.9411 203.168 17.3185C203.864 15.6959 204.862 14.4335 206.164 13.5313C207.464 12.6291 208.987 12.178 210.73 12.178C212.994 12.178 214.756 12.9504 216.018 14.4951L216.252 12.5675H221.755ZM215.667 27.4436V18.7593C214.964 17.643 213.832 17.0848 212.271 17.0848C210.957 17.0848 209.953 17.6267 209.256 18.7106C208.56 19.7945 208.212 21.2062 208.212 22.9456V23.3546C208.212 25.055 208.554 26.4408 209.237 27.5117C209.92 28.5826 210.918 29.118 212.232 29.118C213.794 29.118 214.938 28.5599 215.667 27.4436ZM102.978 64.4695C102.028 65.9685 100.698 67.1335 98.9876 67.9645C97.2767 68.795 95.2766 69.2105 92.9869 69.2105C90.5413 69.2105 88.4272 68.6555 86.6452 67.546C84.8626 66.436 83.4967 64.849 82.547 62.785C81.5972 60.721 81.1223 58.2805 81.1223 55.464V53.8285C81.1223 51.0375 81.6101 48.6035 82.5858 46.5266C83.5619 44.4496 84.9438 42.8529 86.7328 41.7366C88.5218 40.6203 90.6065 40.062 92.9869 40.062C95.3418 40.062 97.3583 40.4936 99.0363 41.3569C100.714 42.2201 102.019 43.4144 102.949 44.9396C103.879 46.4649 104.435 48.2205 104.617 50.2065H98.2947C98.1906 48.5191 97.7357 47.2697 96.9288 46.4584C96.1224 45.647 94.8082 45.2414 92.9869 45.2414C91.1267 45.2414 89.7543 45.9229 88.8697 47.2859C87.9847 48.6489 87.5427 50.8165 87.5427 53.7895V55.464C87.5427 57.489 87.7214 59.1245 88.0793 60.3705C88.4372 61.617 89.0126 62.5385 89.8061 63.1355C90.6 63.7325 91.6603 64.031 92.9869 64.031C94.6912 64.031 95.9695 63.642 96.8217 62.863C97.6734 62.084 98.1518 60.8835 98.2558 59.2605H104.578C104.461 61.234 103.928 62.97 102.978 64.4695ZM113.473 40.0718C114.097 40.6494 114.409 41.3991 114.409 42.3208C114.409 43.2294 114.097 43.9726 113.473 44.5502C112.848 45.1278 112.029 45.4166 111.014 45.4166C109.999 45.4166 109.183 45.1278 108.565 44.5502C107.947 43.9726 107.638 43.2294 107.638 42.3208C107.638 41.3991 107.947 40.6494 108.565 40.0718C109.183 39.4942 109.999 39.2053 111.014 39.2053C112.029 39.2053 112.848 39.4942 113.473 40.0718ZM107.989 68.821V47.7532H114.097V68.821H107.989ZM130.719 47.5975L130.641 53.478C129.639 53.374 128.937 53.322 128.534 53.322C127.467 53.322 126.598 53.491 125.928 53.8285C125.258 54.166 124.767 54.672 124.455 55.347V68.821H118.367V47.7533H124.085L124.279 50.343C124.813 49.3823 125.473 48.6456 126.26 48.1329C127.047 47.6202 127.941 47.3638 128.943 47.3638C129.672 47.3638 130.263 47.4417 130.719 47.5975ZM150.834 61.383C150.834 62.902 150.444 64.255 149.663 65.443C148.882 66.6305 147.822 67.5555 146.482 68.2175C145.143 68.8795 143.646 69.2105 141.994 69.2105C139.874 69.2105 138.075 68.7495 136.598 67.828C135.122 66.9065 134.016 65.644 133.281 64.041C132.546 62.438 132.178 60.6045 132.178 58.5405V58.0535C132.178 55.9895 132.546 54.153 133.281 52.543C134.016 50.9335 135.119 49.6679 136.589 48.7463C138.059 47.8246 139.854 47.3638 141.975 47.3638C143.718 47.3638 145.256 47.6981 146.59 48.3666C147.923 49.035 148.964 50.002 149.712 51.268C150.46 52.5335 150.834 54.0295 150.834 55.756H145.116C145.103 54.7305 144.814 53.893 144.248 53.244C143.682 52.595 142.879 52.2705 141.838 52.2705C140.459 52.2705 139.519 52.7865 139.018 53.8185C138.517 54.8505 138.267 56.262 138.267 58.0535V58.5405C138.267 60.3705 138.517 61.7885 139.018 62.795C139.519 63.801 140.472 64.304 141.877 64.304C142.853 64.304 143.633 64.041 144.219 63.515C144.804 62.9895 145.103 62.279 145.116 61.383H150.834ZM154.05 68.821V38.9132H160.157V68.821H154.05ZM183.141 60.2735H169.891C170.125 61.5195 170.665 62.5025 171.511 63.223C172.356 63.9435 173.436 64.304 174.75 64.304C175.765 64.304 176.701 64.122 177.56 63.7585C178.418 63.395 179.154 62.8305 179.765 62.0645L182.634 65.472C181.892 66.5235 180.806 67.4095 179.375 68.13C177.944 68.8505 176.272 69.2105 174.36 69.2105C172.187 69.2105 170.294 68.753 168.681 67.838C167.068 66.9225 165.832 65.6865 164.973 64.1285C164.115 62.571 163.685 60.8575 163.685 58.988V58.248C163.685 56.1585 164.082 54.2925 164.876 52.65C165.669 51.008 166.817 49.7166 168.32 48.7755C169.823 47.8344 171.615 47.3638 173.696 47.3638C175.687 47.3638 177.391 47.7824 178.809 48.6197C180.227 49.457 181.304 50.651 182.038 52.2025C182.774 53.7535 183.141 55.5805 183.141 57.6835V60.2735ZM177.17 55.756C177.17 54.6655 176.874 53.812 176.282 53.1955C175.69 52.579 174.815 52.2705 173.657 52.2705C171.588 52.2705 170.34 53.5945 169.91 56.2425H177.17V55.756Z" fill="#262838"/>
</svg>
